<svg width="33" height="24" viewBox="0 0 33 24" fill="none" xmlns="http://www.w3.org/2000/svg">
<path d="M4.875 10.375C6.66758 10.375 8.125 8.91758 8.125 7.125C8.125 5.33242 6.66758 3.875 4.875 3.875C3.08242 3.875 1.625 5.33242 1.625 7.125C1.625 8.91758 3.08242 10.375 4.875 10.375ZM27.625 10.375C29.4176 10.375 30.875 8.91758 30.875 7.125C30.875 5.33242 29.4176 3.875 27.625 3.875C25.8324 3.875 24.375 5.33242 24.375 7.125C24.375 8.91758 25.8324 10.375 27.625 10.375ZM29.25 12H26C25.1063 12 24.2988 12.3605 23.7098 12.9445C25.7563 14.0668 27.2086 16.093 27.5234 18.5H30.875C31.7738 18.5 32.5 17.7738 32.5 16.875V15.25C32.5 13.4574 31.0426 12 29.25 12ZM16.25 12C19.3934 12 21.9375 9.45586 21.9375 6.3125C21.9375 3.16914 19.3934 0.625 16.25 0.625C13.1066 0.625 10.5625 3.16914 10.5625 6.3125C10.5625 9.45586 13.1066 12 16.25 12ZM20.15 13.625H19.7285C18.6723 14.1328 17.4992 14.4375 16.25 14.4375C15.0008 14.4375 13.8328 14.1328 12.7715 13.625H12.35C9.12031 13.625 6.5 16.2453 6.5 19.475V20.9375C6.5 22.2832 7.5918 23.375 8.9375 23.375H23.5625C24.9082 23.375 26 22.2832 26 20.9375V19.475C26 16.2453 23.3797 13.625 20.15 13.625ZM8.79023 12.9445C8.20117 12.3605 7.39375 12 6.5 12H3.25C1.45742 12 0 13.4574 0 15.25V16.875C0 17.7738 0.726172 18.5 1.625 18.5H4.97148C5.29141 16.093 6.74375 14.0668 8.79023 12.9445Z" fill="white"/>
</svg>
