<svg width="40" height="40" viewBox="0 0 40 40" fill="none" xmlns="http://www.w3.org/2000/svg">
<path d="M32.0644 24.1765L25.8004 21.1885L23.1516 19.9249C24.3084 19.1961 25.248 18.0713 25.8628 16.7165C26.3761 15.5872 26.6414 14.361 26.6408 13.1205C26.6408 12.3897 26.5248 11.6957 26.3632 11.0261C25.5752 7.78127 23.0412 5.39087 19.9992 5.39087C17.0148 5.39087 14.5192 7.69607 13.6824 10.8485C13.4892 11.5717 13.3564 12.3237 13.3564 13.1205C13.3564 14.5041 13.6796 15.7941 14.2288 16.9161C14.8636 18.2177 15.8048 19.2909 16.9504 19.9809L14.4136 21.1621L7.94642 24.1741C7.38482 24.4373 7.01562 25.0709 7.01562 25.7785V32.8845C7.01562 33.8369 7.67923 34.6089 8.49843 34.6089H18.1036V29.1681C18.1053 29.112 18.1218 29.0574 18.1512 29.0097L18.1472 29.0073L19.7204 26.2825L19.7244 26.2849C19.7804 26.1889 19.88 26.1209 19.9992 26.1209C20.1184 26.1209 20.218 26.1885 20.274 26.2849L20.2756 26.2837L20.29 26.3089L20.2964 26.3201L21.8488 29.0085L21.8468 29.0097C21.8764 29.0575 21.8928 29.1123 21.8944 29.1685V34.6093H31.4996C32.3188 34.6093 32.9828 33.8373 32.9828 32.8849V25.7785C32.984 25.0733 32.6208 24.4457 32.0644 24.1765ZM21.848 22.3545L21.852 22.3569L20.2784 25.0817L20.2744 25.0793C20.247 25.1282 20.2072 25.1691 20.1589 25.1979C20.1107 25.2266 20.0558 25.2421 19.9996 25.2429C19.9435 25.2421 19.8886 25.2266 19.8403 25.1979C19.7921 25.1691 19.7523 25.1282 19.7248 25.0793L19.7228 25.0805L19.7068 25.0529L19.702 25.0449L18.1496 22.3557L18.1512 22.3545C18.1217 22.3066 18.1053 22.2519 18.1036 22.1957C18.1036 22.0177 18.248 21.8733 18.426 21.8733H21.5724C21.7504 21.8733 21.8948 22.0177 21.8948 22.1957C21.8942 22.2519 21.878 22.3069 21.848 22.3545Z" fill="#002768"/>
</svg>
