<svg width="33" height="32" viewBox="0 0 33 32" fill="none" xmlns="http://www.w3.org/2000/svg">
<g clip-path="url(#clip0_129_607)">
<mask id="mask0_129_607" style="mask-type:luminance" maskUnits="userSpaceOnUse" x="0" y="0" width="33" height="32">
<path d="M32.7773 0H0.777344V32H32.7773V0Z" fill="white"/>
</mask>
<g mask="url(#mask0_129_607)">
<path d="M24.852 22.875C26.8402 22.875 28.452 21.2632 28.452 19.275C28.452 17.2868 26.8402 15.675 24.852 15.675C22.8637 15.675 21.252 17.2868 21.252 19.275C21.252 21.2632 22.8637 22.875 24.852 22.875Z" fill="#E64E37"/>
<path d="M9.45234 6.0751C10.4465 6.0751 11.2523 5.26921 11.2523 4.2751C11.2523 3.28099 10.4465 2.4751 9.45234 2.4751C8.45823 2.4751 7.65234 3.28099 7.65234 4.2751C7.65234 5.26921 8.45823 6.0751 9.45234 6.0751Z" fill="#E64E37"/>
<path fill-rule="evenodd" clip-rule="evenodd" d="M14.8377 25.3476V21.4227C14.8377 21.1442 14.6111 20.9175 14.3325 20.9175C14.0536 20.9175 13.8272 21.1442 13.8272 21.4227V25.3476C13.8272 25.6266 14.0536 25.8529 14.3325 25.8529C14.611 25.8529 14.8377 25.6266 14.8377 25.3476ZM11.1426 21.4228V25.3477C11.1426 25.6266 11.3689 25.8529 11.6478 25.8529C11.9267 25.8529 12.1531 25.6266 12.1531 25.3477V21.4228C12.1531 21.1442 11.9267 20.9175 11.6478 20.9175C11.3689 20.9175 11.1426 21.1442 11.1426 21.4228Z" fill="#002768"/>
<path fill-rule="evenodd" clip-rule="evenodd" d="M9.68688 25.853H16.2961C16.575 25.853 16.8013 25.6266 16.8013 25.3478C16.8013 25.0688 16.5749 24.8425 16.2961 24.8425H9.68688C9.408 24.8425 9.18164 25.0689 9.18164 25.3478C9.18159 25.6266 9.40795 25.853 9.68688 25.853Z" fill="#002768"/>
<path fill-rule="evenodd" clip-rule="evenodd" d="M21.5951 20.9176H2.35541C2.07008 20.9176 1.8387 20.6865 1.8387 20.4012V4.92969C1.8387 4.64437 2.07013 4.41331 2.35541 4.41331H7.3282C7.60708 4.41331 7.83344 4.18695 7.83344 3.90807C7.83344 3.62919 7.60708 3.40283 7.3282 3.40283C7.3282 3.40283 4.06688 3.40283 2.35541 3.40283C1.51195 3.40278 0.828125 4.08624 0.828125 4.92969V20.4012C0.828125 21.2446 1.5119 21.9281 2.35535 21.9281H21.5951C21.874 21.9281 22.1003 21.7017 22.1003 21.4229C22.1004 21.1442 21.874 20.9176 21.5951 20.9176ZM24.1427 10.9834V15.6154C24.1427 15.8939 24.369 16.1206 24.6479 16.1206C24.9268 16.1206 25.1531 15.8939 25.1531 15.6154V10.9834C25.1531 10.7045 24.9268 10.4782 24.6479 10.4782C24.369 10.4782 24.1427 10.7045 24.1427 10.9834Z" fill="#002768"/>
<path fill-rule="evenodd" clip-rule="evenodd" d="M21.5015 16.8577H1.33336C1.05443 16.8577 0.828125 17.0837 0.828125 17.3629V20.4012C0.828125 20.8061 0.989122 21.1945 1.27545 21.4811C1.56178 21.7675 1.95014 21.9282 2.35535 21.9282H21.5951C21.874 21.9282 22.1003 21.7018 22.1003 21.4229C22.1003 21.1444 21.874 20.9177 21.5951 20.9177H2.35535C2.21824 20.9177 2.08688 20.8635 1.98987 20.7665C1.89318 20.6698 1.83865 20.5384 1.83865 20.4013V17.8683H21.5015C21.7804 17.8683 22.0067 17.6419 22.0067 17.3631C22.0067 17.0842 21.7803 16.8577 21.5015 16.8577Z" fill="#002768"/>
<path fill-rule="evenodd" clip-rule="evenodd" d="M24.6471 15.1101C22.3225 15.1101 20.4355 16.9971 20.4355 19.3217C20.4355 21.6462 22.3225 23.5332 24.6471 23.5332C26.9717 23.5332 28.859 21.6462 28.859 19.3217C28.859 16.9971 26.9716 15.1101 24.6471 15.1101ZM24.6471 16.1206C26.4138 16.1206 27.8484 17.5549 27.8484 19.3217C27.8484 21.0884 26.4138 22.5227 24.6471 22.5227C22.8804 22.5227 21.4461 21.0884 21.4461 19.3217C21.4461 17.5549 22.8804 16.1206 24.6471 16.1206Z" fill="#002768"/>
<path fill-rule="evenodd" clip-rule="evenodd" d="M18.0859 32.0001C21.1357 32.0001 28.1632 32.0001 31.2133 31.99C31.7331 31.99 32.2178 31.7219 32.4957 31.2806C32.7732 30.839 32.8046 30.286 32.5785 29.816C32.5782 29.8153 32.5782 29.815 32.5778 29.8143C31.151 26.8724 28.1349 24.8425 24.6486 24.8425C21.1629 24.8425 18.1475 26.8717 16.7109 29.8082C16.7102 29.8092 16.7099 29.8102 16.7092 29.8113C16.4819 30.2845 16.5135 30.8416 16.7931 31.286C17.0727 31.7306 17.5608 32.0001 18.0859 32.0001ZM18.0859 30.9896C17.9084 30.9896 17.7431 30.8983 17.6484 30.7481C17.5541 30.5982 17.5433 30.4102 17.6197 30.2502C18.8923 27.6505 21.5621 25.8531 24.6486 25.8531C27.7348 25.8531 30.4046 27.6502 31.6681 30.2543C31.7432 30.4109 31.7328 30.5955 31.6401 30.7427C31.5475 30.8899 31.3855 30.9796 31.2117 30.9796C31.211 30.9796 31.2103 30.9796 31.21 30.9796C28.1609 30.9896 21.135 30.9896 18.0859 30.9896Z" fill="#002768"/>
<path fill-rule="evenodd" clip-rule="evenodd" d="M14.0886 5.66402V1.52691C14.0886 1.24159 14.32 1.01053 14.6053 1.01053H25.8363C25.973 1.01053 26.1044 1.06511 26.2014 1.16175C26.2984 1.25876 26.3527 1.39011 26.3527 1.52691V8.11486C26.3527 8.2516 26.2984 8.38296 26.2014 8.48002C26.1044 8.57671 25.9731 8.63124 25.8363 8.63124H18.3867C18.1081 8.63124 17.8815 8.8576 17.8815 9.13648C17.8815 9.41536 18.1081 9.64172 18.3867 9.64172H25.8363C26.2412 9.64172 26.6295 9.48072 26.9159 9.19439C27.2022 8.90806 27.3632 8.5197 27.3632 8.1148C27.3632 6.45384 27.3632 3.18782 27.3632 1.52686C27.3632 1.12196 27.2022 0.733603 26.9159 0.447273C26.6296 0.160997 26.2412 0 25.8363 0C23.3632 0 17.0781 0 14.6054 0C13.7619 0 13.0781 0.683776 13.0781 1.52691V5.66402C13.0781 5.9429 13.3048 6.16926 13.5834 6.16926C13.8622 6.16926 14.0886 5.9429 14.0886 5.66402Z" fill="#002768"/>
<path fill-rule="evenodd" clip-rule="evenodd" d="M23.4842 2.35107H19.142C18.863 2.35107 18.6367 2.57743 18.6367 2.85631C18.6367 3.13519 18.8631 3.36155 19.142 3.36155H23.4842C23.7627 3.36155 23.9894 3.13519 23.9894 2.85631C23.9894 2.57743 23.7627 2.35107 23.4842 2.35107Z" fill="#002768"/>
<path fill-rule="evenodd" clip-rule="evenodd" d="M23.4832 4.31567H19.9759C19.697 4.31567 19.4707 4.54203 19.4707 4.82091C19.4707 5.09979 19.6971 5.32615 19.9759 5.32615H23.4831C23.7617 5.32615 23.9883 5.09979 23.9883 4.82091C23.9884 4.54203 23.7617 4.31567 23.4832 4.31567Z" fill="#002768"/>
<path fill-rule="evenodd" clip-rule="evenodd" d="M23.4831 6.28003H20.9466C20.6677 6.28003 20.4414 6.50639 20.4414 6.78527C20.4414 7.0642 20.6678 7.2905 20.9466 7.2905H23.4831C23.7616 7.2905 23.9883 7.06415 23.9883 6.78527C23.9883 6.50639 23.7616 6.28003 23.4831 6.28003Z" fill="#002768"/>
<path fill-rule="evenodd" clip-rule="evenodd" d="M9.46916 1.5896C7.99213 1.5896 6.79297 2.78876 6.79297 4.26579C6.79297 5.74282 7.99213 6.94235 9.46916 6.94235C10.9466 6.94235 12.1457 5.74288 12.1457 4.26579C12.1457 2.7887 10.9466 1.5896 9.46916 1.5896ZM9.46916 2.60013C10.3888 2.60013 11.1352 3.34657 11.1352 4.26579C11.1352 5.18538 10.3888 5.93182 9.46916 5.93182C8.54994 5.93182 7.8035 5.18538 7.8035 4.26579C7.8035 3.34657 8.54994 2.60013 9.46916 2.60013Z" fill="#002768"/>
<path fill-rule="evenodd" clip-rule="evenodd" d="M13.2788 7.82055H7.926C6.47222 7.82055 5.23095 8.86949 4.98842 10.3031C4.79071 11.4736 4.55426 12.8719 4.40906 13.7288C4.35115 14.073 4.44747 14.4257 4.67282 14.6922C4.89818 14.959 5.22995 15.1129 5.57894 15.1129H11.1203C11.7755 15.1129 12.3067 14.5817 12.3067 13.9265V11.1839H13.5749C14.2526 11.1839 14.9044 10.9219 15.3935 10.4527C15.8001 10.0623 16.339 9.54555 16.7864 9.1164C17.108 8.80751 17.294 8.38375 17.3034 7.9378C17.3125 7.49655 17.1478 7.0694 16.845 6.74873C16.842 6.74535 16.8291 6.73187 16.8258 6.72886C16.5179 6.41289 16.0982 6.23065 15.657 6.22157C15.211 6.21216 14.7799 6.38055 14.4578 6.68913L13.2788 7.82055ZM13.4819 8.83107C13.6122 8.83107 13.7375 8.78056 13.8315 8.69026C13.8315 8.69026 14.5473 8.00379 15.1573 7.41835C15.2856 7.29539 15.4577 7.22802 15.636 7.23172C15.8118 7.23542 15.9796 7.30818 16.1022 7.43414L16.1102 7.44223C16.2308 7.57025 16.2965 7.74066 16.2928 7.91682C16.2891 8.09467 16.215 8.26375 16.0867 8.38708C15.6393 8.81623 15.1007 9.33293 14.6938 9.72335C14.3927 10.012 13.9919 10.1734 13.5748 10.1734H11.8014C11.5225 10.1734 11.2961 10.3994 11.2961 10.6786V13.9265C11.2961 14.0235 11.2173 14.1023 11.1203 14.1023H5.57889C5.52737 14.1023 5.47818 14.0794 5.44447 14.04C5.41113 14.0006 5.39697 13.9481 5.40537 13.8972C5.55057 13.0403 5.78702 11.642 5.98474 10.4715C6.1451 9.52431 6.9653 8.83107 7.92595 8.83107H13.4819Z" fill="#002768"/>
<path fill-rule="evenodd" clip-rule="evenodd" d="M7.52889 14.6917L8.06515 11.521C8.11164 11.2458 7.92602 10.9851 7.65116 10.9386C7.3763 10.8918 7.11522 11.0774 7.06878 11.3523L6.53253 14.5233C6.48603 14.7982 6.67165 15.0592 6.94651 15.1057C7.22138 15.1522 7.48245 14.9669 7.52889 14.6917Z" fill="#002768"/>
<path fill-rule="evenodd" clip-rule="evenodd" d="M17.0013 7.32495L18.0593 4.43989C18.1553 4.17781 18.0206 3.88747 17.7589 3.79146C17.4968 3.69546 17.2065 3.83019 17.1105 4.09195L16.0525 6.97701C15.9564 7.23909 16.0912 7.52943 16.3529 7.62544C16.615 7.72139 16.9053 7.58666 17.0013 7.32495Z" fill="#002768"/>
<path fill-rule="evenodd" clip-rule="evenodd" d="M12.2904 19.8982H13.6907C13.9695 19.8982 14.1959 19.6718 14.1959 19.3929C14.1959 19.114 13.9695 18.8877 13.6907 18.8877H12.2904C12.0115 18.8877 11.7852 19.1141 11.7852 19.3929C11.7852 19.6718 12.0115 19.8982 12.2904 19.8982Z" fill="#002768"/>
</g>
</g>
<defs>
<clipPath id="clip0_129_607">
<rect width="33" height="32" fill="white"/>
</clipPath>
</defs>
</svg>
