<svg width="18" height="18" viewBox="0 0 18 18" fill="none" xmlns="http://www.w3.org/2000/svg">
<g clip-path="url(#clip0_152_229)">
<path d="M16.1251 3H14.1251V4.5C14.1251 4.64445 14.0967 4.78749 14.0414 4.92095C13.9861 5.05441 13.9051 5.17567 13.8029 5.27781C13.7008 5.37996 13.5795 5.46098 13.4461 5.51626C13.3126 5.57154 13.1696 5.6 13.0251 5.6C12.8807 5.6 12.7376 5.57154 12.6042 5.51626C12.4707 5.46098 12.3495 5.37996 12.2473 5.27781C12.1452 5.17567 12.0641 5.05441 12.0089 4.92095C11.9536 4.78749 11.9251 4.64445 11.9251 4.5V3H6.10013V4.5C6.10013 4.79173 5.98424 5.07152 5.77795 5.27781C5.57166 5.4841 5.29187 5.6 5.00013 5.6C4.70839 5.6 4.4286 5.4841 4.22231 5.27781C4.01602 5.07152 3.90013 4.79173 3.90013 4.5V3H1.90013C1.78114 2.99864 1.66309 3.02116 1.55296 3.06623C1.44282 3.11129 1.34284 3.17798 1.25894 3.26236C1.17503 3.34674 1.10889 3.44708 1.06444 3.55746C1.01998 3.66784 0.998115 3.78602 1.00013 3.905V15.095C0.998142 15.2119 1.0192 15.328 1.0621 15.4367C1.105 15.5455 1.1689 15.6447 1.25016 15.7288C1.33141 15.8128 1.42843 15.88 1.53566 15.9265C1.6429 15.9731 1.75825 15.998 1.87513 16H16.1251C16.242 15.998 16.3574 15.9731 16.4646 15.9265C16.5718 15.88 16.6688 15.8128 16.7501 15.7288C16.8314 15.6447 16.8953 15.5455 16.9382 15.4367C16.9811 15.328 17.0021 15.2119 17.0001 15.095V3.905C17.0021 3.78812 16.9811 3.67199 16.9382 3.56325C16.8953 3.45451 16.8314 3.35528 16.7501 3.27124C16.6688 3.1872 16.5718 3.11999 16.4646 3.07345C16.3574 3.02691 16.242 3.00195 16.1251 3ZM5.00013 13H4.00013V12H5.00013V13ZM5.00013 10.5H4.00013V9.5H5.00013V10.5ZM5.00013 8H4.00013V7H5.00013V8ZM8.00013 13H7.00013V12H8.00013V13ZM8.00013 10.5H7.00013V9.5H8.00013V10.5ZM8.00013 8H7.00013V7H8.00013V8ZM11.0001 13H10.0001V12H11.0001V13ZM11.0001 10.5H10.0001V9.5H11.0001V10.5ZM11.0001 8H10.0001V7H11.0001V8ZM14.0001 13H13.0001V12H14.0001V13ZM14.0001 10.5H13.0001V9.5H14.0001V10.5ZM14.0001 8H13.0001V7H14.0001V8Z" fill="#002768"/>
<path d="M5 5C5.13261 5 5.25979 4.94732 5.35355 4.85355C5.44732 4.75979 5.5 4.63261 5.5 4.5V1.5C5.5 1.36739 5.44732 1.24021 5.35355 1.14645C5.25979 1.05268 5.13261 1 5 1C4.86739 1 4.74021 1.05268 4.64645 1.14645C4.55268 1.24021 4.5 1.36739 4.5 1.5V4.5C4.5 4.63261 4.55268 4.75979 4.64645 4.85355C4.74021 4.94732 4.86739 5 5 5Z" fill="#002768"/>
<path d="M13 5C13.1326 5 13.2598 4.94732 13.3536 4.85355C13.4473 4.75979 13.5 4.63261 13.5 4.5V1.5C13.5 1.36739 13.4473 1.24021 13.3536 1.14645C13.2598 1.05268 13.1326 1 13 1C12.8674 1 12.7402 1.05268 12.6464 1.14645C12.5527 1.24021 12.5 1.36739 12.5 1.5V4.5C12.5 4.63261 12.5527 4.75979 12.6464 4.85355C12.7402 4.94732 12.8674 5 13 5Z" fill="#002768"/>
</g>
<defs>
<clipPath id="clip0_152_229">
<rect width="18" height="18" fill="white"/>
</clipPath>
</defs>
</svg>
