<svg width="46" height="46" viewBox="0 0 46 46" fill="none" xmlns="http://www.w3.org/2000/svg">
<circle cx="23" cy="23" r="23" fill="#E64E37"/>
<path d="M17.857 13.445C19.12 14.366 20.076 15.66 20.89 16.849L21.528 17.787C21.7262 18.0766 21.8168 18.4263 21.7843 18.7756C21.7518 19.125 21.5982 19.452 21.35 19.7L19.994 21.056L20.137 21.36C20.487 22.069 21.091 23.09 22 24C22.6287 24.617 23.3362 25.1483 24.104 25.58L24.471 25.777L24.798 25.939L24.944 26.006L26.299 24.65C26.5479 24.401 26.8763 24.2474 27.227 24.2161C27.5776 24.1848 27.9281 24.2779 28.217 24.479L29.231 25.182C30.383 25.992 31.586 26.915 32.521 28.113C32.6827 28.3209 32.7855 28.5684 32.8187 28.8296C32.852 29.0909 32.8144 29.3562 32.71 29.598C31.873 31.551 29.755 33.214 27.552 33.132L27.252 33.116L27.019 33.096L26.761 33.066L26.48 33.028L26.175 32.977L25.849 32.913L25.503 32.836L25.137 32.742L24.752 32.632L24.35 32.502C22.504 31.876 20.161 30.646 17.757 28.242C15.353 25.838 14.124 23.496 13.498 21.65L13.368 21.248L13.258 20.863L13.164 20.497L13.086 20.151C13.0635 20.0426 13.0425 19.934 13.023 19.825L12.973 19.52L12.933 19.239L12.904 18.981L12.884 18.748L12.868 18.448C12.787 16.252 14.468 14.119 16.412 13.286C16.646 13.185 16.9022 13.1465 17.1556 13.1744C17.4089 13.2023 17.6506 13.2955 17.857 13.445ZM16.93 15.253C15.858 15.813 14.82 17.093 14.867 18.374L14.887 18.702L14.909 18.907L14.938 19.137L14.978 19.39L15.029 19.667L15.094 19.965L15.174 20.285L15.27 20.624L15.384 20.982C15.426 21.104 15.4707 21.229 15.518 21.357L15.672 21.749L15.848 22.156C16.476 23.538 17.5 25.156 19.173 26.828C20.845 28.5 22.463 29.525 23.845 30.153L24.252 30.329L24.644 30.483C24.772 30.531 24.897 30.5757 25.019 30.617L25.377 30.731L25.717 30.827L26.036 30.907L26.334 30.972L26.611 31.023L26.865 31.063L27.095 31.093L27.299 31.113L27.627 31.133C28.891 31.18 30.181 30.148 30.739 29.09C30.027 28.255 29.143 27.57 28.168 26.88L27.42 26.359L27.23 26.558L26.824 27.001L26.609 27.227C26.023 27.824 25.339 28.331 24.519 28L24.293 27.905L24.017 27.781L23.863 27.708L23.525 27.539L23.154 27.339C22.2161 26.8151 21.3527 26.1677 20.587 25.414C19.8334 24.6484 19.1859 23.785 18.662 22.847L18.462 22.477L18.292 22.138L18.096 21.708L18 21.48C17.689 20.711 18.117 20.062 18.664 19.5L18.888 19.28L19.445 18.767L19.645 18.577L19.172 17.884C18.469 16.864 17.782 15.944 16.929 15.252L16.93 15.253ZM25.993 17.04L26.109 17.053C26.837 17.1814 27.5055 17.5369 28.0189 18.0687C28.5324 18.6004 28.8642 19.281 28.967 20.013C29.0037 20.2662 28.9419 20.5238 28.7944 20.7328C28.647 20.9418 28.425 21.0864 28.1742 21.1367C27.9233 21.1871 27.6628 21.1394 27.446 21.0034C27.2293 20.8675 27.0729 20.6537 27.009 20.406L26.986 20.291C26.9458 20.0041 26.8234 19.735 26.6335 19.5162C26.4436 19.2974 26.1944 19.1382 25.916 19.058L25.761 19.023C25.5099 18.9785 25.2853 18.8397 25.1331 18.6351C24.981 18.4305 24.9127 18.1754 24.9423 17.9221C24.972 17.6689 25.0973 17.4365 25.2926 17.2725C25.4879 17.1085 25.7385 17.0253 25.993 17.04ZM26 14C27.5913 14 29.1175 14.6321 30.2427 15.7574C31.3679 16.8826 32 18.4087 32 20C31.9998 20.2549 31.9022 20.5 31.7272 20.6854C31.5522 20.8707 31.3131 20.9822 31.0587 20.9972C30.8042 21.0121 30.5537 20.9293 30.3582 20.7657C30.1628 20.6021 30.0371 20.3701 30.007 20.117L30 20C29.9999 18.9846 29.6136 18.0072 28.9195 17.266C28.2253 16.5249 27.2753 16.0755 26.262 16.009L26 16C25.7348 16 25.4805 15.8946 25.2929 15.7071C25.1054 15.5196 25 15.2652 25 15C25 14.7348 25.1054 14.4804 25.2929 14.2929C25.4805 14.1054 25.7348 14 26 14Z" fill="white"/>
</svg>
