<svg width="34" height="34" viewBox="0 0 34 34" fill="none" xmlns="http://www.w3.org/2000/svg">
<circle cx="17" cy="17" r="16.5" fill="#002768" stroke="white"/>
<path fill-rule="evenodd" clip-rule="evenodd" d="M17.4248 14.33V15.7442C17.721 15.2931 18.1292 14.9266 18.6095 14.6806C19.0898 14.4346 19.6257 14.3175 20.1648 14.3408C23.044 14.3408 23.6665 16.1408 23.6665 18.4825V23.25H20.9998V19.0233C20.9998 18.015 20.7965 16.7183 19.2265 16.7183C17.704 16.7183 17.444 17.8158 17.444 18.9483V23.25H14.7857V14.33H17.4248ZM12.9998 12.0883C12.9995 12.3525 12.9212 12.6107 12.7747 12.8305C12.6283 13.0504 12.4202 13.2221 12.1765 13.3242C11.933 13.4254 11.6648 13.4519 11.4061 13.4002C11.1475 13.3486 10.91 13.2212 10.724 13.0342C10.5377 12.847 10.4108 12.609 10.3593 12.35C10.3079 12.0909 10.3342 11.8225 10.4349 11.5784C10.5357 11.3342 10.7063 11.1253 10.9255 10.9779C11.1446 10.8306 11.4024 10.7513 11.6665 10.75C11.842 10.75 12.0158 10.7847 12.1779 10.852C12.34 10.9193 12.4872 11.0179 12.6111 11.1423C12.735 11.2666 12.8331 11.4142 12.8998 11.5766C12.9665 11.7389 13.0005 11.9128 12.9998 12.0883Z" fill="white"/>
<path d="M13 14.3408H10.3333V23.25H13V14.3408Z" fill="white"/>
</svg>
