<svg width="34" height="34" viewBox="0 0 34 34" fill="none" xmlns="http://www.w3.org/2000/svg">
<circle cx="17" cy="17" r="16.5" fill="#002768" stroke="white"/>
<path d="M18.65 10.1562C17.73 10.1562 16.8477 10.5217 16.1972 11.1722C15.5467 11.8227 15.1812 12.705 15.1812 13.625V15.5562H13.325C13.232 15.5562 13.1562 15.6313 13.1562 15.725V18.275C13.1562 18.368 13.2312 18.4438 13.325 18.4438H15.1812V23.675C15.1812 23.768 15.2563 23.8438 15.35 23.8438H17.9C17.993 23.8438 18.0688 23.7687 18.0688 23.675V18.4438H19.9415C20.0187 18.4438 20.0862 18.3912 20.105 18.3162L20.7425 15.7662C20.7488 15.7414 20.7493 15.7154 20.744 15.6903C20.7387 15.6652 20.7278 15.6416 20.712 15.6213C20.6963 15.6011 20.6761 15.5847 20.653 15.5734C20.63 15.5621 20.6047 15.5563 20.579 15.5562H18.0688V13.625C18.0687 13.5487 18.0838 13.4731 18.113 13.4026C18.1422 13.332 18.185 13.268 18.239 13.214C18.293 13.16 18.357 13.1172 18.4276 13.088C18.4981 13.0588 18.5737 13.0437 18.65 13.0437H20.6C20.693 13.0437 20.7687 12.9688 20.7687 12.875V10.325C20.7687 10.232 20.6937 10.1562 20.6 10.1562H18.65Z" fill="white"/>
</svg>
