<svg width="20" height="20" viewBox="0 0 20 20" fill="none" xmlns="http://www.w3.org/2000/svg">
<path d="M9.99996 1.66667C14.6025 1.66667 18.3333 5.3975 18.3333 10C18.3333 14.6025 14.6025 18.3333 9.99996 18.3333C5.39746 18.3333 1.66663 14.6025 1.66663 10C1.66663 5.3975 5.39746 1.66667 9.99996 1.66667ZM9.99996 3.33333C8.23185 3.33333 6.53616 4.03571 5.28591 5.28596C4.03567 6.5362 3.33329 8.23189 3.33329 10C3.33329 11.7681 4.03567 13.4638 5.28591 14.714C6.53616 15.9643 8.23185 16.6667 9.99996 16.6667C11.7681 16.6667 13.4638 15.9643 14.714 14.714C15.9642 13.4638 16.6666 11.7681 16.6666 10C16.6666 8.23189 15.9642 6.5362 14.714 5.28596C13.4638 4.03571 11.7681 3.33333 9.99996 3.33333ZM9.99996 5C10.2041 5.00003 10.4011 5.07496 10.5536 5.2106C10.7061 5.34623 10.8036 5.53312 10.8275 5.73583L10.8333 5.83333V9.655L13.0891 11.9108C13.2386 12.0608 13.3254 12.262 13.3318 12.4737C13.3383 12.6853 13.2639 12.8914 13.1239 13.0502C12.9839 13.209 12.7887 13.3086 12.5779 13.3287C12.3671 13.3487 12.1566 13.2878 11.9891 13.1583L11.9108 13.0892L9.41079 10.5892C9.28128 10.4595 9.19809 10.2908 9.17413 10.1092L9.16663 10V5.83333C9.16663 5.61232 9.25442 5.40036 9.4107 5.24408C9.56698 5.0878 9.77894 5 9.99996 5Z" fill="white"/>
</svg>
