<svg width="64" height="64" viewBox="0 0 64 64" fill="none" xmlns="http://www.w3.org/2000/svg">
<g clip-path="url(#clip0_6_682)">
<path d="M13.3333 6.0163C6.63231 10.8389 1.87461 18.1849 0.450806 26.6667H13.3333V6.0163Z" fill="#F0263C" style="fill:#F0263C;fill:color(display-p3 0.9412 0.1490 0.2353);fill-opacity:1;"/>
<path d="M63.5492 26.6667C61.009 11.5335 47.855 0 32 0C29.2376 0 26.557 0.3501 24 1.0082V26.6666L63.5492 26.6667Z" fill="#F0263C" style="fill:#F0263C;fill:color(display-p3 0.9412 0.1490 0.2353);fill-opacity:1;"/>
<path d="M0.450806 37.3333C1.87451 45.815 6.63221 53.161 13.3333 57.9836V37.3333H0.450806Z" fill="#F0263C" style="fill:#F0263C;fill:color(display-p3 0.9412 0.1490 0.2353);fill-opacity:1;"/>
<path d="M24 62.9918C26.557 63.6499 29.2376 64 32 64C47.855 64 61.009 52.4664 63.5492 37.3333H24V62.9918Z" fill="#F0263C" style="fill:#F0263C;fill:color(display-p3 0.9412 0.1490 0.2353);fill-opacity:1;"/>
<path d="M63.8808 29.3333C63.8065 28.4333 63.6964 27.544 63.5491 26.6666H24V1.0082C23.094 1.2414 22.2064 1.5193 21.3333 1.828C19.4695 2.487 17.6871 3.3153 16 4.2916C15.0812 4.8233 14.1914 5.3987 13.3333 6.0162V26.6665H0.4508C0.3035 27.5438 0.1935 28.4332 0.1191 29.3332C0.0465 30.2135 0 31.1011 0 32C0 32.8989 0.0465 33.7865 0.1192 34.6667C0.1935 35.5667 0.3036 36.456 0.4509 37.3334H13.3334V57.9837C14.1915 58.6013 15.0812 59.1766 16.0001 59.7084C17.6873 60.6848 19.4696 61.513 21.3334 62.172C22.2064 62.4807 23.0941 62.7587 24.0001 62.9919V37.3335H63.5493C63.6966 36.4562 63.8066 35.5668 63.881 34.6668C63.9537 33.7866 64.0002 32.8991 64.0002 32.0001C64.0002 31.1011 63.9535 30.2135 63.8808 29.3333Z" fill="white" style="fill:white;fill-opacity:1;"/>
</g>
<defs>
<clipPath id="clip0_6_682">
<rect width="64" height="64" fill="white" style="fill:white;fill-opacity:1;"/>
</clipPath>
</defs>
</svg>
