<svg width="20" height="20" viewBox="0 0 20 20" fill="none" xmlns="http://www.w3.org/2000/svg">
<path d="M11.8334 2.39583C10.8112 2.39583 9.8309 2.8019 9.10811 3.52469C8.38531 4.24749 7.97925 5.22781 7.97925 6.25V8.39583H5.91675C5.81341 8.39583 5.72925 8.47917 5.72925 8.58333V11.4167C5.72925 11.52 5.81258 11.6042 5.91675 11.6042H7.97925V17.4167C7.97925 17.52 8.06258 17.6042 8.16675 17.6042H11.0001C11.1034 17.6042 11.1876 17.5208 11.1876 17.4167V11.6042H13.2684C13.3542 11.6042 13.4292 11.5458 13.4501 11.4625L14.1584 8.62917C14.1654 8.60152 14.166 8.57265 14.1601 8.54474C14.1542 8.51684 14.1421 8.49064 14.1245 8.46815C14.107 8.44565 14.0846 8.42744 14.059 8.41491C14.0334 8.40238 14.0053 8.39585 13.9767 8.39583H11.1876V6.25C11.1876 6.16519 11.2043 6.08121 11.2367 6.00285C11.2692 5.92449 11.3168 5.8533 11.3767 5.79333C11.4367 5.73336 11.5079 5.68578 11.5863 5.65333C11.6646 5.62087 11.7486 5.60417 11.8334 5.60417H14.0001C14.1034 5.60417 14.1876 5.52083 14.1876 5.41667V2.58333C14.1876 2.48 14.1042 2.39583 14.0001 2.39583H11.8334Z" fill="white"/>
</svg>
