<svg width="24" height="24" viewBox="0 0 24 24" fill="none" xmlns="http://www.w3.org/2000/svg">
<path d="M12.5 19V22M10.5 22H14.5" stroke="#E64E37" stroke-width="1.5" stroke-linecap="round" stroke-linejoin="round"/>
<path d="M13.5 16C9.63401 16 6.5 12.866 6.5 9C6.5 5.13401 9.63401 2 13.5 2C17.366 2 20.5 5.13401 20.5 9C20.5 12.866 17.366 16 13.5 16Z" stroke="#E64E37" stroke-width="1.5" stroke-linecap="round" stroke-linejoin="round"/>
<path d="M8.5 4C9.154 4.038 9.492 4.359 10.073 4.973C11.123 6.083 12.173 6.175 12.873 5.805C13.922 5.25 13.04 4.352 14.272 3.865C15.075 3.545 15.187 2.68 14.74 2M20 10C18.5 10 18.234 11.247 17 11C14.5 10.5 13.792 11.059 13.792 12.251C13.792 13.443 13.792 13.443 13.272 14.337C12.934 14.919 12.815 15.5 13.489 16" stroke="#E64E37" stroke-width="1.5" stroke-linecap="round" stroke-linejoin="round"/>
<path d="M6.5 2C5.55039 2.91901 4.79541 4.0197 4.28001 5.23655C3.76462 6.45339 3.49935 7.76151 3.5 9.083C3.5 14.56 7.977 19 13.5 19C16.1142 19.0063 18.6269 17.9886 20.5 16.165" stroke="#E64E37" stroke-width="1.5" stroke-linecap="round" stroke-linejoin="round"/>
</svg>
