<svg width="64" height="64" viewBox="0 0 64 64" fill="none" xmlns="http://www.w3.org/2000/svg">
<g clip-path="url(#clip0_6_1081)">
<path d="M32 64C40.4686 64 48.1632 60.7045 53.887 55.3333H10.113C15.8368 60.7044 23.5314 64 32 64Z" fill="#2D25C5" style="fill:#2D25C5;fill:color(display-p3 0.1765 0.1451 0.7725);fill-opacity:1;"/>
<path d="M4.67994 48.6667H59.3202C60.5901 46.5895 61.6236 44.3539 62.3976 42H1.60254C2.37654 44.3538 3.41004 46.5895 4.67994 48.6667Z" fill="#2D25C5" style="fill:#2D25C5;fill:color(display-p3 0.1765 0.1451 0.7725);fill-opacity:1;"/>
<path d="M32 22H62.3975C61.6235 19.6462 60.59 17.4105 59.3201 15.3333H32V22Z" fill="#2D25C5" style="fill:#2D25C5;fill:color(display-p3 0.1765 0.1451 0.7725);fill-opacity:1;"/>
<path d="M53.887 8.6667H32V15.3334H59.3201C57.8144 12.8705 55.9809 10.6317 53.887 8.6667Z" fill="white" style="fill:white;fill-opacity:1;"/>
<path d="M32 28.6667H63.827C63.5884 26.362 63.0989 24.133 62.3976 22H32.0001L32 28.6667Z" fill="white" style="fill:white;fill-opacity:1;"/>
<path d="M10.113 55.3333H53.887C55.981 53.3683 57.8144 51.1296 59.3201 48.6666H4.67993C6.18563 51.1295 8.01913 53.3683 10.113 55.3333Z" fill="white" style="fill:white;fill-opacity:1;"/>
<path d="M1.6025 22C0.9011 24.133 0.4116 26.362 0.1731 28.6667C0.0596 29.7625 0 30.8742 0 32C0 33.1258 0.0596 34.2375 0.173 35.3333H13.3333V22H1.6025Z" fill="#2D25C5" style="fill:#2D25C5;fill:color(display-p3 0.1765 0.1451 0.7725);fill-opacity:1;"/>
<path d="M63.827 28.6667H32V22H20V35.3333H63.827C63.9404 34.2375 64 33.1257 64 32C64 30.8743 63.9404 29.7625 63.827 28.6667Z" fill="#2D25C5" style="fill:#2D25C5;fill:color(display-p3 0.1765 0.1451 0.7725);fill-opacity:1;"/>
<path d="M13.3333 6.0205C12.2035 6.8343 11.1259 7.7161 10.113 8.6667C8.01903 10.6317 6.18563 12.8704 4.67993 15.3334H13.3334L13.3333 6.0205Z" fill="#2D25C5" style="fill:#2D25C5;fill:color(display-p3 0.1765 0.1451 0.7725);fill-opacity:1;"/>
<path d="M32 0C27.108 0 22.4775 1.1052 18.3328 3.0695C18.8806 2.8102 19.4356 2.5636 20 2.335V15.3333H32V8.6666H53.887C48.1632 3.2955 40.4686 0 32 0Z" fill="#2D25C5" style="fill:#2D25C5;fill:color(display-p3 0.1765 0.1451 0.7725);fill-opacity:1;"/>
<path d="M20 35.3333V22H32V15.3333H20V2.335C19.4355 2.5636 18.8805 2.8102 18.3328 3.0695C18.2469 3.1101 18.1625 3.1531 18.0771 3.1945C17.6244 3.4137 17.178 3.6439 16.7375 3.8835C16.6254 3.9445 16.5131 4.0051 16.4018 4.0674C15.9342 4.3292 15.4733 4.6015 15.0206 4.8857C14.9734 4.9153 14.9249 4.9429 14.8779 4.9727C14.3739 5.2927 13.88 5.6274 13.3955 5.9743C13.3752 5.9888 13.3537 6.0016 13.3335 6.0162V15.3332H4.67987C3.40997 17.4104 2.37647 19.646 1.60247 21.9999H13.3334V35.3332H0.172974C0.411574 37.6379 0.901074 39.8669 1.60237 41.9999H62.3975C63.0989 39.8669 63.5884 37.6379 63.8269 35.3332L20 35.3333Z" fill="white" style="fill:white;fill-opacity:1;"/>
</g>
<defs>
<clipPath id="clip0_6_1081">
<rect width="64" height="64" fill="white" style="fill:white;fill-opacity:1;"/>
</clipPath>
</defs>
</svg>
