<svg width="25" height="25" viewBox="0 0 25 25" fill="none" xmlns="http://www.w3.org/2000/svg">
<path d="M12.5256 6.10298V17.4568L17.1108 20.2588L15.9099 15.0186L19.9492 11.5251L14.6362 11.0521L12.5256 6.10298ZM12.5256 20.8775L6.48477 24.5165C6.21791 24.6863 5.93892 24.7591 5.6478 24.7348C5.35667 24.7106 5.10194 24.6135 4.8836 24.4437C4.66526 24.2739 4.49543 24.0619 4.37413 23.8076C4.25283 23.5534 4.22857 23.2681 4.30135 22.9517L5.90253 16.0739L0.553145 11.4524C0.310543 11.234 0.159159 10.9851 0.0989935 10.7056C0.0388281 10.4262 0.0567806 10.1535 0.152851 9.88758C0.248922 9.62168 0.394483 9.40334 0.589535 9.23255C0.784588 9.06176 1.05145 8.95259 1.39012 8.90504L8.44985 8.2864L11.1791 1.80892C11.3004 1.51779 11.4887 1.29945 11.7439 1.15389C11.9991 1.00833 12.2597 0.935547 12.5256 0.935547C12.7915 0.935547 13.052 1.00833 13.3072 1.15389C13.5625 1.29945 13.7507 1.51779 13.872 1.80892L16.6013 8.2864L23.661 8.90504C24.0007 8.95356 24.2675 9.06273 24.4616 9.23255C24.6557 9.40237 24.8013 9.62071 24.8983 9.88758C24.9953 10.1544 25.0138 10.4276 24.9536 10.7071C24.8934 10.9866 24.7416 11.235 24.498 11.4524L19.1486 16.0739L20.7498 22.9517C20.8226 23.2671 20.7983 23.5524 20.677 23.8076C20.5557 24.0628 20.3859 24.2749 20.1675 24.4437C19.9492 24.6126 19.6945 24.7096 19.4034 24.7348C19.1122 24.7601 18.8332 24.6873 18.5664 24.5165L12.5256 20.8775Z" fill="white"/>
</svg>
