<svg width="20" height="20" viewBox="0 0 20 20" fill="none" xmlns="http://www.w3.org/2000/svg">
<path d="M14.1667 7.08333C14.8571 7.08333 15.4167 6.52369 15.4167 5.83333C15.4167 5.14298 14.8571 4.58333 14.1667 4.58333C13.4764 4.58333 12.9167 5.14298 12.9167 5.83333C12.9167 6.52369 13.4764 7.08333 14.1667 7.08333Z" fill="white"/>
<path d="M13.3333 2.5C15.6333 2.5 17.5 4.36667 17.5 6.66667V13.3333C17.5 15.6333 15.6333 17.5 13.3333 17.5H6.66667C4.36667 17.5 2.5 15.6333 2.5 13.3333V6.66667C2.5 4.36667 4.36667 2.5 6.66667 2.5H10H13.3333Z" stroke="white" stroke-width="1.5" stroke-linecap="round" stroke-linejoin="round"/>
<path d="M10.0001 6.66667C11.8417 6.66667 13.3334 8.15833 13.3334 10C13.3334 11.8417 11.8417 13.3333 10.0001 13.3333C8.15841 13.3333 6.66675 11.8417 6.66675 10C6.66675 8.15833 8.15841 6.66667 10.0001 6.66667Z" stroke="white" stroke-width="1.5" stroke-linecap="round" stroke-linejoin="round"/>
</svg>
