<svg width="40" height="40" viewBox="0 0 40 40" fill="none" xmlns="http://www.w3.org/2000/svg">
<g clip-path="url(#clip0_1_141)">
<path d="M1.65 4.46672C1.65 5.63809 2.11532 6.76148 2.94361 7.58977C3.7719 8.41806 4.89529 8.88338 6.06666 8.88338C7.23804 8.88338 8.36143 8.41806 9.18972 7.58977C10.018 6.76148 10.4833 5.63809 10.4833 4.46672C10.4833 3.29534 10.018 2.17195 9.18972 1.34366C8.36143 0.515375 7.23804 0.0500488 6.06666 0.0500488C4.89529 0.0500488 3.7719 0.515375 2.94361 1.34366C2.11532 2.17195 1.65 3.29534 1.65 4.46672ZM18.95 15.8667H11.4667L5.96666 11.4834C5.57356 11.1647 5.0988 10.9628 4.59653 10.9009C4.09426 10.839 3.58471 10.9195 3.12598 11.1333C2.66726 11.347 2.27783 11.6853 2.00212 12.1097C1.72642 12.5341 1.57553 13.0274 1.56666 13.5334L0.316665 26.6667C0.251347 27.3209 0.426933 27.9764 0.81049 28.5103C1.19405 29.0442 1.75922 29.4198 2.4 29.5667L11.9833 31.6667L12.6333 37.5667C12.7129 38.2784 13.0719 38.9293 13.6314 39.3763C13.9084 39.5976 14.2263 39.7621 14.567 39.8606C14.9076 39.959 15.2643 39.9894 15.6167 39.95C15.969 39.9107 16.3102 39.8022 16.6207 39.631C16.9312 39.4597 17.2049 39.229 17.4262 38.952C17.6475 38.675 17.8121 38.3571 17.9105 38.0164C18.009 37.6758 18.0394 37.3191 18 36.9667L17.1333 29.1667C17.0731 28.6011 16.8336 28.0696 16.4497 27.6498C16.0659 27.23 15.558 26.9439 15 26.8334L5.91666 24.7501L6.48333 18.8334L8.81666 20.7167C9.29084 21.0951 9.8768 21.306 10.4833 21.3167H18.9167C19.6327 21.3167 20.3195 21.0323 20.8259 20.5259C21.3322 20.0196 21.6167 19.3328 21.6167 18.6167C21.6167 17.9006 21.3322 17.2139 20.8259 16.7075C20.3195 16.2012 19.6327 15.9167 18.9167 15.9167L18.95 15.8667ZM32.75 13.1C32.5866 13.0717 32.4191 13.0765 32.2576 13.1144C32.0961 13.1522 31.9439 13.2222 31.81 13.3202C31.6762 13.4183 31.5636 13.5423 31.4788 13.6849C31.394 13.8274 31.3389 13.9857 31.3167 14.15L30.25 21.1834H24.8C24.4699 21.1921 24.1562 21.3294 23.9258 21.566C23.6954 21.8026 23.5666 22.1198 23.5667 22.4501C23.571 22.7787 23.7047 23.0924 23.9386 23.3232C24.1726 23.554 24.488 23.6834 24.8167 23.6834H31.3333C31.6282 23.6827 31.913 23.5764 32.1362 23.3838C32.3594 23.1911 32.5062 22.9249 32.55 22.6334L33.7833 14.5334C33.8118 14.3712 33.8076 14.2049 33.7707 14.0444C33.7339 13.8838 33.6654 13.7323 33.5691 13.5987C33.4727 13.4651 33.3506 13.3522 33.21 13.2665C33.0693 13.1809 32.9129 13.1243 32.75 13.1ZM38.7667 26.0334H21.7667C21.5191 26.0334 21.2817 26.1317 21.1067 26.3068C20.9317 26.4818 20.8333 26.7192 20.8333 26.9667V28.6334C20.8333 28.8809 20.9317 29.1183 21.1067 29.2933C21.2817 29.4684 21.5191 29.5667 21.7667 29.5667H23.9333L23.2 38.4834C23.1863 38.6476 23.2053 38.813 23.2558 38.9699C23.3062 39.1268 23.3873 39.2722 23.4941 39.3976C23.601 39.5231 23.7317 39.6262 23.8785 39.701C24.0254 39.7758 24.1857 39.8208 24.35 39.8334H24.45C24.7638 39.8306 25.0654 39.7114 25.2963 39.4989C25.5273 39.2865 25.6711 38.9959 25.7 38.6834L26.45 29.55H34.0833L34.85 38.6834C34.8749 38.9944 35.0153 39.2849 35.2435 39.4977C35.4718 39.7105 35.7713 39.8302 36.0833 39.8334H36.2C36.3637 39.8209 36.5232 39.7758 36.6693 39.7008C36.8153 39.6258 36.9449 39.5224 37.0505 39.3966C37.156 39.2709 37.2354 39.1254 37.284 38.9685C37.3326 38.8117 37.3493 38.6468 37.3333 38.4834L36.6667 29.5334H38.8333C39.0809 29.5334 39.3183 29.4351 39.4933 29.26C39.6683 29.085 39.7667 28.8476 39.7667 28.6V26.9334C39.7625 26.8078 39.733 26.6844 39.68 26.5705C39.627 26.4566 39.5516 26.3546 39.4582 26.2706C39.3648 26.1865 39.2555 26.1222 39.1366 26.0814C39.0178 26.0407 38.892 26.0243 38.7667 26.0334Z" fill="#002768"/>
</g>
<defs>
<clipPath id="clip0_1_141">
<rect width="40" height="40" fill="white"/>
</clipPath>
</defs>
</svg>
