<svg width="20" height="20" viewBox="0 0 20 20" fill="none" xmlns="http://www.w3.org/2000/svg">
<path fill-rule="evenodd" clip-rule="evenodd" d="M10.4246 7.33V8.74417C10.7208 8.29306 11.129 7.92658 11.6093 7.68059C12.0896 7.4346 12.6255 7.31753 13.1646 7.34083C16.0438 7.34083 16.6663 9.14083 16.6663 11.4825V16.25H13.9996V12.0233C13.9996 11.015 13.7963 9.71833 12.2263 9.71833C10.7038 9.71833 10.4438 10.8158 10.4438 11.9483V16.25H7.78548V7.33H10.4246ZM5.99965 5.08833C5.99932 5.3525 5.92101 5.6107 5.77455 5.83054C5.62808 6.05039 5.41997 6.22211 5.17631 6.32417C4.93275 6.4254 4.66458 6.45188 4.40593 6.40024C4.14727 6.3486 3.90983 6.22117 3.72381 6.03417C3.53745 5.84705 3.41058 5.60901 3.35914 5.34997C3.30771 5.09094 3.33401 4.82248 3.43474 4.57836C3.53547 4.33423 3.70614 4.12534 3.92527 3.97795C4.14441 3.83056 4.40223 3.75125 4.66631 3.75C4.84183 3.75 5.01562 3.78465 5.17772 3.85197C5.33981 3.91929 5.48702 4.01795 5.6109 4.14229C5.73477 4.26663 5.83288 4.41421 5.89959 4.57655C5.9663 4.7389 6.00031 4.91282 5.99965 5.08833Z" fill="white"/>
<path d="M5.99992 7.34083H3.33325V16.25H5.99992V7.34083Z" fill="white"/>
</svg>
