<svg width="34" height="34" viewBox="0 0 34 34" fill="none" xmlns="http://www.w3.org/2000/svg">
<path d="M26.7893 25.4999C28.0855 27.4379 28.6324 28.6208 28.1734 29.6083C28.1167 29.7291 28.0506 29.8458 27.975 29.9582C27.1604 31.1666 25.0567 31.1666 20.8492 31.1666H13.151C8.94352 31.1666 6.84119 31.1666 6.0266 29.9582C5.95229 29.8464 5.88601 29.7294 5.82827 29.6083C5.36927 28.6208 5.9161 27.4379 7.21094 25.4999M21.2501 13.4583C21.2501 14.5854 20.8023 15.6664 20.0053 16.4635C19.2083 17.2605 18.1273 17.7083 17.0001 17.7083C15.8729 17.7083 14.7919 17.2605 13.9949 16.4635C13.1979 15.6664 12.7501 14.5854 12.7501 13.4583C12.7501 12.3311 13.1979 11.2501 13.9949 10.453C14.7919 9.65602 15.8729 9.20825 17.0001 9.20825C18.1273 9.20825 19.2083 9.65602 20.0053 10.453C20.8023 11.2501 21.2501 12.3311 21.2501 13.4583Z" stroke="white" stroke-width="1.5" stroke-linecap="round" stroke-linejoin="round"/>
<path d="M17 2.83325C22.7502 2.83325 27.625 7.68959 27.625 13.5815C27.625 19.5669 22.6709 23.7673 18.0951 26.6233C17.7619 26.815 17.3843 26.9159 17 26.9159C16.6157 26.9159 16.2381 26.815 15.9049 26.6233C11.3376 23.739 6.375 19.5882 6.375 13.5815C6.375 7.68959 11.2497 2.83325 17 2.83325Z" stroke="white" stroke-width="1.5" stroke-linecap="round" stroke-linejoin="round"/>
</svg>
