<svg width="64" height="64" viewBox="0 0 64 64" fill="none" xmlns="http://www.w3.org/2000/svg">
<g clip-path="url(#clip0_6_1797)">
<path d="M0 32C0 35.7412 0.6482 39.3295 1.8281 42.6667H62.1719C63.3518 39.3296 64 35.7412 64 32C64 28.2588 63.3518 24.6705 62.1719 21.3333H1.8281C0.6482 24.6705 0 28.2588 0 32Z" fill="white" style="fill:white;fill-opacity:1;"/>
<path d="M1.82812 21.3333H62.1719C57.7782 8.9061 45.9319 0 32 0C18.0681 0 6.22183 8.9061 1.82812 21.3333Z" fill="#F0263C" style="fill:#F0263C;fill:color(display-p3 0.9412 0.1490 0.2353);fill-opacity:1;"/>
<path d="M62.1719 42.6667H1.82812C6.22192 55.0939 18.0681 64 32 64C45.9319 64 57.7782 55.0939 62.1719 42.6667Z" fill="#4DAFE3" style="fill:#4DAFE3;fill:color(display-p3 0.3020 0.6863 0.8902);fill-opacity:1;"/>
</g>
<defs>
<clipPath id="clip0_6_1797">
<rect width="64" height="64" fill="white" style="fill:white;fill-opacity:1;"/>
</clipPath>
</defs>
</svg>
