<svg width="68" height="68" viewBox="0 0 68 68" fill="none" xmlns="http://www.w3.org/2000/svg">
<path d="M40.0463 19.8108L49.6683 10.1859C50.7516 9.12027 52.212 8.52582 53.7315 8.53203C55.251 8.53824 56.7065 9.14463 57.781 10.2191C58.8555 11.2936 59.4618 12.7491 59.4681 14.2686C59.4743 15.7881 58.8798 17.2485 57.8142 18.3318L48.1893 27.9538L53.397 53.8646C54.0628 57.1796 47.634 61.7979 45.9227 57.4063L38.301 37.8449L28.4042 47.7418C28.8858 53.5246 28.9907 55.4484 24.9362 59.5001L18.7737 49.2264L8.5 43.0639C12.5517 39.0094 14.4755 39.1114 20.2583 39.5959L30.1552 29.7019L10.5938 22.0774C6.20217 20.3661 10.8205 13.9344 14.1355 14.6031L40.0463 19.8108Z" stroke="#002768" stroke-width="1.5" stroke-linecap="round" stroke-linejoin="round"/>
</svg>
