<svg width="20" height="20" viewBox="0 0 20 20" fill="none" xmlns="http://www.w3.org/2000/svg">
<path d="M10 14.3959L6.5417 16.4792C6.38892 16.5765 6.2292 16.6181 6.06253 16.6042C5.89586 16.5904 5.75003 16.5348 5.62503 16.4376C5.50003 16.3404 5.40281 16.219 5.33336 16.0734C5.26392 15.9279 5.25003 15.7645 5.2917 15.5834L6.20836 11.6459L3.14586 9.00008C3.00697 8.87508 2.92031 8.73258 2.88586 8.57258C2.85142 8.41258 2.8617 8.25647 2.9167 8.10425C2.9717 7.95203 3.05503 7.82703 3.1667 7.72925C3.27836 7.63147 3.43114 7.56897 3.62503 7.54175L7.6667 7.18758L9.2292 3.47925C9.29864 3.31258 9.40642 3.18758 9.55253 3.10425C9.69864 3.02091 9.84781 2.97925 10 2.97925C10.1523 2.97925 10.3014 3.02091 10.4475 3.10425C10.5936 3.18758 10.7014 3.31258 10.7709 3.47925L12.3334 7.18758L16.375 7.54175C16.5695 7.56953 16.7223 7.63203 16.8334 7.72925C16.9445 7.82647 17.0278 7.95147 17.0834 8.10425C17.1389 8.25703 17.1495 8.41342 17.115 8.57342C17.0806 8.73342 16.9936 8.87564 16.8542 9.00008L13.7917 11.6459L14.7084 15.5834C14.75 15.764 14.7361 15.9273 14.6667 16.0734C14.5973 16.2195 14.5 16.3409 14.375 16.4376C14.25 16.5342 14.1042 16.5898 13.9375 16.6042C13.7709 16.6187 13.6111 16.577 13.4584 16.4792L10 14.3959Z" fill="#E64E37"/>
</svg>
