<svg width="34" height="34" viewBox="0 0 34 34" fill="none" xmlns="http://www.w3.org/2000/svg">
<circle cx="17" cy="17" r="17" fill="#E64E37"/>
<path d="M20.75 14.375C21.3713 14.375 21.875 13.8713 21.875 13.25C21.875 12.6287 21.3713 12.125 20.75 12.125C20.1287 12.125 19.625 12.6287 19.625 13.25C19.625 13.8713 20.1287 14.375 20.75 14.375Z" fill="white"/>
<path d="M20 10.25C22.07 10.25 23.75 11.93 23.75 14V20C23.75 22.07 22.07 23.75 20 23.75H14C11.93 23.75 10.25 22.07 10.25 20V14C10.25 11.93 11.93 10.25 14 10.25H17H20Z" stroke="white" stroke-width="1.5" stroke-linecap="round" stroke-linejoin="round"/>
<path d="M17 14C18.6575 14 20 15.3425 20 17C20 18.6575 18.6575 20 17 20C15.3425 20 14 18.6575 14 17C14 15.3425 15.3425 14 17 14Z" stroke="white" stroke-width="1.5" stroke-linecap="round" stroke-linejoin="round"/>
</svg>
