<svg width="34" height="34" viewBox="0 0 34 34" fill="none" xmlns="http://www.w3.org/2000/svg">
<circle cx="17" cy="17" r="17" fill="#E64E37"/>
<path fill-rule="evenodd" clip-rule="evenodd" d="M17.4249 14.33V15.7442C17.721 15.2931 18.1292 14.9266 18.6095 14.6806C19.0898 14.4346 19.6258 14.3175 20.1649 14.3408C23.0441 14.3408 23.6666 16.1408 23.6666 18.4825V23.25H20.9999V19.0233C20.9999 18.015 20.7966 16.7183 19.2266 16.7183C17.7041 16.7183 17.4441 17.8158 17.4441 18.9483V23.25H14.7857V14.33H17.4249ZM12.9999 12.0883C12.9996 12.3525 12.9213 12.6107 12.7748 12.8305C12.6283 13.0504 12.4202 13.2221 12.1766 13.3242C11.933 13.4254 11.6648 13.4519 11.4062 13.4002C11.1475 13.3486 10.9101 13.2212 10.7241 13.0342C10.5377 12.847 10.4108 12.609 10.3594 12.35C10.308 12.0909 10.3343 11.8225 10.435 11.5784C10.5357 11.3342 10.7064 11.1253 10.9255 10.9779C11.1446 10.8306 11.4025 10.7513 11.6666 10.75C11.8421 10.75 12.0159 10.7847 12.178 10.852C12.3401 10.9193 12.4873 11.0179 12.6111 11.1423C12.735 11.2666 12.8331 11.4142 12.8998 11.5766C12.9665 11.7389 13.0006 11.9128 12.9999 12.0883Z" fill="white"/>
<path d="M13 14.3408H10.3334V23.25H13V14.3408Z" fill="white"/>
</svg>
