<svg width="34" height="34" viewBox="0 0 34 34" fill="none" xmlns="http://www.w3.org/2000/svg">
<path d="M23.4544 18.2835L22.8098 18.9253C22.8098 18.9253 21.2756 20.4496 17.0893 16.2874C12.9031 12.1253 14.4373 10.6009 14.4373 10.6009L14.8425 10.1958C15.8441 9.20126 15.939 7.60326 15.0649 6.43593L13.2799 4.05168C12.1976 2.60668 10.108 2.41543 8.86841 3.64793L6.64424 5.85793C6.03082 6.46993 5.61999 7.26043 5.66957 8.13876C5.79707 10.387 6.81424 15.2221 12.4866 20.8633C18.5032 26.8444 24.1486 27.0824 26.4563 26.8671C27.1873 26.7991 27.822 26.4279 28.3334 25.9179L30.3451 23.9176C31.7051 22.5675 31.3226 20.2513 29.5829 19.3063L26.8771 17.8344C25.7352 17.2153 24.3469 17.3967 23.4544 18.2835Z" fill="white"/>
</svg>
