<svg width="24" height="24" viewBox="0 0 24 24" fill="none" xmlns="http://www.w3.org/2000/svg">
<path d="M8.625 8.5H4.125C3.85978 8.5 3.60543 8.39464 3.41789 8.20711C3.23036 8.01957 3.125 7.76522 3.125 7.5V3C3.125 2.73478 3.23036 2.48043 3.41789 2.29289C3.60543 2.10536 3.85978 2 4.125 2C4.39022 2 4.64457 2.10536 4.83211 2.29289C5.01964 2.48043 5.125 2.73478 5.125 3V6.5H8.625C8.89022 6.5 9.14457 6.60536 9.33211 6.79289C9.51964 6.98043 9.625 7.23478 9.625 7.5C9.625 7.76522 9.51964 8.01957 9.33211 8.20711C9.14457 8.39464 8.89022 8.5 8.625 8.5Z" fill="#E64E37"/>
<path d="M21 13.0001C20.7348 13.0001 20.4805 12.8947 20.2929 12.7072C20.1054 12.5197 20 12.2653 20 12.0001C20.0008 10.2396 19.4205 8.52815 18.3491 7.13121C17.2778 5.73427 15.7753 4.72999 14.0749 4.27423C12.3744 3.81846 10.5711 3.93668 8.94471 4.61055C7.31832 5.28442 5.95983 6.47625 5.08003 8.0011C4.94715 8.23065 4.72853 8.39801 4.47227 8.46636C4.216 8.53472 3.94307 8.49848 3.71353 8.3656C3.48398 8.23273 3.31662 8.01411 3.24826 7.75784C3.17991 7.50157 3.21615 7.22865 3.34903 6.9991C4.44928 5.09334 6.14771 3.60395 8.18084 2.76199C10.214 1.92003 12.4681 1.77257 14.5936 2.34249C16.7191 2.91241 18.5971 4.16784 19.9362 5.91403C21.2754 7.66022 22.0008 9.79954 22 12.0001C22 12.2653 21.8947 12.5197 21.7071 12.7072C21.5196 12.8947 21.2652 13.0001 21 13.0001ZM19.875 22.0001C19.6098 22.0001 19.3555 21.8947 19.1679 21.7072C18.9804 21.5197 18.875 21.2653 18.875 21.0001V17.5001H15.375C15.1098 17.5001 14.8555 17.3947 14.6679 17.2072C14.4804 17.0197 14.375 16.7653 14.375 16.5001C14.375 16.2349 14.4804 15.9805 14.6679 15.793C14.8555 15.6055 15.1098 15.5001 15.375 15.5001H19.875C20.1402 15.5001 20.3946 15.6055 20.5821 15.793C20.7697 15.9805 20.875 16.2349 20.875 16.5001V21.0001C20.875 21.2653 20.7697 21.5197 20.5821 21.7072C20.3946 21.8947 20.1402 22.0001 19.875 22.0001Z" fill="#E64E37"/>
<path d="M12 22C9.34865 21.9974 6.80665 20.9429 4.93186 19.0681C3.05707 17.1934 2.00265 14.6514 2 12C2 11.7348 2.10536 11.4804 2.29289 11.2929C2.48043 11.1054 2.73478 11 3 11C3.26522 11 3.51957 11.1054 3.70711 11.2929C3.89464 11.4804 4 11.7348 4 12C3.99924 13.7605 4.57956 15.472 5.65091 16.8689C6.72225 18.2658 8.22472 19.2701 9.92516 19.7259C11.6256 20.1816 13.4289 20.0634 15.0553 19.3896C16.6817 18.7157 18.0402 17.5239 18.92 15.999C18.9858 15.8853 19.0733 15.7858 19.1776 15.7059C19.2819 15.6261 19.4009 15.5676 19.5278 15.5337C19.6547 15.4999 19.787 15.4914 19.9172 15.5087C20.0473 15.5259 20.1728 15.5687 20.2865 15.6345C20.4002 15.7003 20.4997 15.7878 20.5796 15.8921C20.6594 15.9964 20.7179 16.1154 20.7518 16.2423C20.7856 16.3692 20.7941 16.5015 20.7768 16.6317C20.7596 16.7618 20.7168 16.8873 20.651 17.001C19.7717 18.5176 18.5102 19.7773 16.9923 20.6544C15.4744 21.5315 13.7531 21.9955 12 22Z" fill="#E64E37"/>
</svg>
