<svg width="36" height="36" viewBox="0 0 36 36" fill="none" xmlns="http://www.w3.org/2000/svg">
<path d="M17.6861 25.3711L11.6453 29.0102C11.3784 29.18 11.0994 29.2528 10.8083 29.2285C10.5172 29.2042 10.2624 29.1072 10.0441 28.9374C9.82575 28.7675 9.65593 28.5555 9.53463 28.3013C9.41332 28.047 9.38906 27.7617 9.46184 27.4454L11.063 20.5676L5.71364 15.946C5.47103 15.7277 5.31965 15.4788 5.25949 15.1993C5.19932 14.9198 5.21727 14.6471 5.31334 14.3812C5.40941 14.1153 5.55497 13.897 5.75003 13.7262C5.94508 13.5554 6.21194 13.4462 6.55062 13.3987L13.6103 12.7801L16.3396 6.30257C16.4609 6.01145 16.6492 5.7931 16.9044 5.64754C17.1596 5.50198 17.4202 5.4292 17.6861 5.4292C17.952 5.4292 18.2125 5.50198 18.4677 5.64754C18.7229 5.7931 18.9112 6.01145 19.0325 6.30257L21.7618 12.7801L28.8215 13.3987C29.1612 13.4472 29.428 13.5564 29.6221 13.7262C29.8162 13.896 29.9617 14.1144 30.0588 14.3812C30.1558 14.6481 30.1743 14.9213 30.1141 15.2007C30.0539 15.4802 29.9021 15.7286 29.6585 15.946L24.3091 20.5676L25.9103 27.4454C25.9831 27.7608 25.9588 28.0461 25.8375 28.3013C25.7162 28.5565 25.5464 28.7685 25.328 28.9374C25.1097 29.1062 24.855 29.2033 24.5638 29.2285C24.2727 29.2537 23.9937 29.1809 23.7269 29.0102L17.6861 25.3711Z" fill="white"/>
</svg>
