<svg width="30" height="30" viewBox="0 0 30 30" fill="none" xmlns="http://www.w3.org/2000/svg">
<g clip-path="url(#clip0_129_540)">
<mask id="mask0_129_540" style="mask-type:luminance" maskUnits="userSpaceOnUse" x="0" y="0" width="30" height="30">
<path d="M30 0H0V30H30V0Z" fill="white"/>
</mask>
<g mask="url(#mask0_129_540)">
<path d="M14.9997 0C10.731 0 7.25781 3.47323 7.25781 7.74194V11.129H7.74168C7.74168 10.0602 8.6083 9.19355 9.67717 9.19355V10.1613H10.1267C11.6978 10.1613 13.2046 9.5371 14.3156 8.42613C14.4438 8.2979 14.618 8.22581 14.7994 8.22581C15.1773 8.22581 15.4836 8.5321 15.4836 8.91V9.03194C15.4836 9.13839 15.4589 9.2429 15.4115 9.33774L14.9997 10.1613C16.5486 10.1613 18.0346 9.54581 19.1301 8.45032L19.1543 8.42613C19.2825 8.2979 19.4567 8.22581 19.6381 8.22581C20.016 8.22581 20.3223 8.5321 20.3223 8.91V9.19355C21.3912 9.19355 22.2578 10.0602 22.2578 11.129H22.7417V7.74194C22.7417 3.47323 19.2685 0 14.9997 0Z" fill="#E64E37"/>
<path d="M18.8693 30.0003H11.1274C10.3271 30.0003 9.67578 29.349 9.67578 28.5487V24.6777C9.67578 23.8774 10.3271 23.2261 11.1274 23.2261H18.8693C19.6697 23.2261 20.3209 23.8774 20.3209 24.6777V28.5487C20.3209 29.349 19.6697 30.0003 18.8693 30.0003ZM11.1274 24.1938C10.8608 24.1938 10.6435 24.4106 10.6435 24.6777V28.5487C10.6435 28.8158 10.8608 29.0325 11.1274 29.0325H18.8693C19.1359 29.0325 19.3532 28.8158 19.3532 28.5487V24.6777C19.3532 24.4106 19.1359 24.1938 18.8693 24.1938H11.1274Z" fill="#002768"/>
<path d="M17.9168 23.827L17.5244 22.2583H12.4737L12.0813 23.827L11.1426 23.5928L11.7179 21.2905H18.2802L18.8555 23.5928L17.9168 23.827Z" fill="#002768"/>
<path d="M14.9997 18.3869C12.1159 18.3869 9.71588 16.2733 9.2683 13.5138C8.1283 13.3188 7.25781 12.3235 7.25781 11.1288C7.25781 9.79476 8.34314 8.70944 9.67717 8.70944H10.161V9.67718C11.6015 9.66799 12.9539 9.10283 13.9735 8.0838C14.1912 7.86654 14.4922 7.7417 14.7994 7.7417C15.4435 7.7417 15.9675 8.26573 15.9675 8.90976V9.0317C15.9675 9.21218 15.9249 9.39267 15.8441 9.55428L15.8131 9.61622C16.9352 9.44638 17.9702 8.92573 18.7875 8.10847C19.0294 7.86654 19.3309 7.7417 19.6377 7.7417C20.2822 7.7417 20.8062 8.26573 20.8062 8.90976V12.5804C20.8062 15.7822 18.2015 18.3869 14.9997 18.3869ZM10.161 10.6449V12.5804C10.161 15.2485 12.3317 17.4191 14.9997 17.4191C17.6678 17.4191 19.8385 15.2485 19.8385 12.5804V8.90976C19.8385 8.7467 19.613 8.65138 19.4959 8.76847C18.2775 9.98734 16.6894 10.6449 14.9997 10.6449H14.2168L14.9785 9.1217C14.9925 9.09363 14.9997 9.06267 14.9997 9.0317V8.90976C14.9997 8.7467 14.7738 8.65138 14.6572 8.76847C13.4557 9.96992 11.8599 10.6357 10.161 10.6449ZM9.1933 9.75992C8.63007 9.95976 8.22555 10.4978 8.22555 11.1288C8.22555 11.7598 8.63007 12.2978 9.1933 12.4977V9.75992Z" fill="#002768"/>
<path d="M20.3223 13.5482V12.5804C21.1226 12.5804 21.7739 11.9291 21.7739 11.1288C21.7739 10.3285 21.1226 9.67721 20.3223 9.67721V8.70947C21.6563 8.70947 22.7416 9.7948 22.7416 11.1288C22.7416 12.4629 21.6563 13.5482 20.3223 13.5482Z" fill="#002768"/>
<path d="M28.7343 28.0643H21.2889V27.0965H27.392L25.9051 22.6362C25.5165 21.4701 24.5241 20.6049 23.3159 20.378L17.418 19.2723V17.0625H18.3857V18.4691L23.4944 19.4272C25.0476 19.7185 26.3236 20.8304 26.8235 22.3299L28.7343 28.0643Z" fill="#002768"/>
<path d="M8.71095 28.0639H1.26562L3.17692 22.3296C3.67675 20.8301 4.95224 19.7181 6.50595 19.4268L11.6142 18.4688V17.0771H12.5819V19.272L6.68402 20.3776C5.4758 20.6046 4.48386 21.4697 4.09483 22.6359L2.60789 27.0962H8.71095V28.0639Z" fill="#002768"/>
<path d="M14.6575 22.1159L15.3418 21.4316L12.4387 18.5286L11.7544 19.2129L14.6575 22.1159Z" fill="#002768"/>
<path d="M22.7546 27.6985L23.6934 27.4639L22.7258 23.5933L21.7871 23.828L22.7546 27.6985Z" fill="#002768"/>
<path d="M7.24262 27.7001L8.20896 23.8291L7.27006 23.5947L6.30371 27.4657L7.24262 27.7001Z" fill="#002768"/>
<path d="M19.3432 23.8145L20.3103 19.4595L19.3656 19.2497L18.3984 23.6047L19.3432 23.8145Z" fill="#002768"/>
<path d="M10.6547 23.8149L11.5994 23.605L10.6318 19.2499L9.68701 19.4598L10.6547 23.8149Z" fill="#002768"/>
<path d="M14.9994 29.0321C16.3356 29.0321 17.4188 27.9489 17.4188 26.6127C17.4188 25.2765 16.3356 24.1934 14.9994 24.1934C13.6633 24.1934 12.5801 25.2765 12.5801 26.6127C12.5801 27.9489 13.6633 29.0321 14.9994 29.0321Z" fill="#E64E37"/>
<path d="M14.9985 28.0648C14.1982 28.0648 13.5469 27.4136 13.5469 26.6132C13.5469 25.8129 14.1982 25.1616 14.9985 25.1616C15.7988 25.1616 16.4501 25.8129 16.4501 26.6132C16.4501 27.4136 15.7988 28.0648 14.9985 28.0648ZM14.9985 26.1294C14.7319 26.1294 14.5146 26.3461 14.5146 26.6132C14.5146 26.8803 14.7319 27.0971 14.9985 27.0971C15.2651 27.0971 15.4824 26.8803 15.4824 26.6132C15.4824 26.3461 15.2651 26.1294 14.9985 26.1294Z" fill="#002768"/>
<path d="M15.343 22.1145L18.2461 19.2114L17.5618 18.5271L14.6587 21.4302L15.343 22.1145Z" fill="#002768"/>
</g>
</g>
<defs>
<clipPath id="clip0_129_540">
<rect width="30" height="30" fill="white"/>
</clipPath>
</defs>
</svg>
