<svg width="31" height="32" viewBox="0 0 31 32" fill="none" xmlns="http://www.w3.org/2000/svg">
<mask id="mask0_129_565" style="mask-type:luminance" maskUnits="userSpaceOnUse" x="0" y="0" width="31" height="33">
<path d="M30.3958 0.000488281H0V32.0005H30.3958V0.000488281Z" fill="white"/>
</mask>
<g mask="url(#mask0_129_565)">
<path d="M15.6054 6.148L22.3904 4.33016L15.4492 3.70283C15.2052 3.68087 15.0254 3.46557 15.0482 3.22156C15.0701 2.97755 15.2863 2.79855 15.5295 2.81966L24.8745 3.66399L25.3101 3.54747L15.6054 0.946099C15.3108 0.867576 15.0482 0.867576 14.7535 0.946099L5.04883 3.54663L14.7535 6.14715C15.0482 6.22652 15.3108 6.22652 15.6054 6.148Z" fill="#E64E37"/>
<path d="M25.5799 8.49599C25.5799 8.86496 25.281 9.16385 24.912 9.16385C24.543 9.16385 24.2441 8.86496 24.2441 8.49599C24.2441 8.12702 24.543 7.82812 24.912 7.82812C25.281 7.82812 25.5799 8.12702 25.5799 8.49599Z" fill="#E64E37"/>
<path d="M25.4193 12.9489C25.5071 12.9489 25.5806 12.8746 25.5806 12.7877V11.045C25.5806 10.7562 25.5282 10.5206 25.4066 10.258L25.2884 10.0039C25.1685 10.0343 25.0427 10.0503 24.9136 10.0503C24.8097 10.0503 24.7075 10.0394 24.6088 10.0199L24.4982 10.258C24.3757 10.5206 24.3242 10.7562 24.3242 11.045V12.7877C24.3242 12.8755 24.3985 12.9489 24.4855 12.9489H25.4193Z" fill="#E64E37"/>
<path d="M21.2312 5.55762L15.8343 7.00395C15.6105 7.0639 15.3952 7.09429 15.1791 7.09429C14.9638 7.09429 14.7476 7.0639 14.5239 7.00395L9.12695 5.55762V9.43899C10.9127 10.4572 12.9999 10.9942 15.1791 10.9942C17.3583 10.9942 19.4455 10.4572 21.2312 9.43899V5.55762Z" fill="#E64E37"/>
<mask id="mask1_129_565" style="mask-type:luminance" maskUnits="userSpaceOnUse" x="0" y="0" width="31" height="33">
<path d="M30.3958 0.000488281H0V32.0005H30.3958V0.000488281Z" fill="white"/>
</mask>
<g mask="url(#mask1_129_565)">
<path d="M28.7089 28.2914C28.7089 28.4332 28.6405 28.5666 28.5256 28.6502C28.4488 28.7059 28.3576 28.7346 28.2656 28.7346C28.2192 28.7346 28.1727 28.727 28.1271 28.7127C25.4261 27.8278 20.5696 27.2908 15.6421 28.6291V29.405C15.6421 29.6499 15.4437 29.8483 15.1988 29.8483C14.9539 29.8483 14.7555 29.6499 14.7555 29.405V28.6291C9.82719 27.2917 4.97062 27.8278 2.26962 28.7127C2.13453 28.7566 1.98677 28.7338 1.8711 28.6502C1.75627 28.5666 1.68788 28.4332 1.68788 28.2914V10.5259H0.898438V29.0529H11.4061C12.5983 29.0529 13.652 29.5199 14.4533 30.403L14.9024 30.8987C14.9835 30.9881 15.0772 31.0295 15.198 31.0295C15.3187 31.0295 15.4124 30.9881 15.4935 30.8987L15.9435 30.403C16.7448 29.5199 17.7985 29.0529 18.9907 29.0529H29.4975V10.5259H28.708L28.7089 28.2914Z" fill="#E64E37"/>
</g>
<mask id="mask2_129_565" style="mask-type:luminance" maskUnits="userSpaceOnUse" x="0" y="0" width="31" height="33">
<path d="M30.3958 0.000488281H0V32.0005H30.3958V0.000488281Z" fill="white"/>
</mask>
<g mask="url(#mask2_129_565)">
<path d="M29.9406 9.63926H28.7078V8.90892C28.7078 8.73668 28.6082 8.58047 28.452 8.50702C27.8914 8.24528 27.0699 8.09499 26.3876 8.00887C26.2289 7.52844 25.8422 7.15103 25.355 7.00581V4.45256L25.5518 4.39937C25.9435 4.29467 26.2061 3.95187 26.2061 3.5466C26.2061 3.14132 25.9435 2.79852 25.5518 2.69383L15.8336 0.0899208C15.3861 -0.0299736 14.9698 -0.0299736 14.5232 0.0899208L4.80496 2.69383C4.41404 2.79852 4.15061 3.14132 4.15061 3.5466C4.15061 3.95187 4.41404 4.29467 4.80496 4.39937L8.23968 5.31968V7.90839C5.59356 7.75388 3.05129 7.99029 1.94354 8.50702C1.78734 8.57963 1.68771 8.73668 1.68771 8.90892V9.63926H0.45499C0.210136 9.63926 0.0117188 9.83768 0.0117188 10.0825V29.4961C0.0117188 29.741 0.210136 29.9394 0.45499 29.9394H11.4059C12.3541 29.9394 13.1587 30.2957 13.7962 30.9991L14.2454 31.4947C14.4953 31.7708 14.8254 31.9168 15.1978 31.9168C15.5701 31.9168 15.9003 31.7708 16.1502 31.4947L16.5994 30.9991C17.2368 30.2966 18.0415 29.9394 18.9897 29.9394H29.9397C30.1846 29.9394 30.383 29.741 30.383 29.4961V10.0825C30.3838 9.83768 30.1854 9.63926 29.9406 9.63926ZM15.6411 11.8742C17.9013 11.7999 20.0569 11.1818 21.9026 10.0741C22.036 9.99388 22.1179 9.8495 22.1179 9.69414V8.8C22.5384 8.77383 22.9605 8.75778 23.3801 8.75103C23.435 9.08201 23.5946 9.37836 23.8243 9.6038L23.6934 9.88412C23.5186 10.2607 23.4367 10.6297 23.4367 11.0451V12.7878C23.4367 13.3653 23.907 13.8356 24.4845 13.8356H25.4192C25.9967 13.8356 26.467 13.3653 26.467 12.7878V11.0451C26.467 10.6297 26.3851 10.2607 26.2103 9.88412L26.0541 9.54892C26.2205 9.36823 26.3454 9.14871 26.4121 8.90554C26.9863 8.98322 27.4701 9.08707 27.823 9.20781V27.6927C24.9709 26.8931 20.3465 26.4861 15.6427 27.7096V11.8742H15.6411ZM25.2875 10.004L25.4057 10.2582C25.5281 10.5207 25.5796 10.7563 25.5796 11.0451V12.7878C25.5796 12.8756 25.5062 12.949 25.4184 12.949H24.4837C24.3959 12.949 24.3224 12.8747 24.3224 12.7878V11.0451C24.3224 10.7563 24.3748 10.5207 24.4963 10.2582L24.6078 10.0201C24.7057 10.0395 24.8079 10.0504 24.9126 10.0504C25.0418 10.0504 25.1667 10.0344 25.2875 10.004ZM25.5796 8.49604C25.5796 8.86417 25.2799 9.16391 24.9118 9.16391C24.5436 9.16391 24.2439 8.86417 24.2439 8.49604C24.2439 8.12792 24.5428 7.82818 24.9118 7.82818C25.2799 7.82818 25.5796 8.12792 25.5796 8.49604ZM24.4685 7.00665C24.032 7.13668 23.6757 7.4533 23.4924 7.86364C23.0357 7.86786 22.5755 7.8839 22.117 7.91177V5.32053L24.4685 4.69066V7.00665ZM14.7528 0.946069C15.0475 0.867546 15.3101 0.867546 15.6047 0.946069L25.3094 3.5466L24.8738 3.66396L15.5279 2.81879C15.2847 2.79768 15.0686 2.97668 15.0466 3.21984C15.0247 3.46385 15.2045 3.67916 15.4477 3.70111L22.3889 4.32844L15.6039 6.14628C15.3092 6.2248 15.0466 6.2248 14.752 6.14628L5.04813 3.5466L14.7528 0.946069ZM14.5232 7.00412C14.7469 7.06406 14.9622 7.09446 15.1784 7.09446C15.3945 7.09446 15.6098 7.06406 15.8336 7.00412L21.2305 5.55778V9.43916C19.4447 10.4574 17.3576 10.9944 15.1784 10.9944C12.9992 10.9944 10.912 10.4574 9.12623 9.43916V5.55778L14.5232 7.00412ZM2.57425 9.20781C3.68116 8.82364 5.93889 8.65815 8.24053 8.79662V9.6933C8.24053 9.84865 8.32243 9.99303 8.45583 10.0732C10.3108 11.1869 12.4807 11.8058 14.7554 11.8742V27.7096C10.0516 26.487 5.42723 26.8931 2.57509 27.6927L2.57425 9.20781ZM29.4973 29.0529H18.9905C17.7983 29.0529 16.7446 29.5198 15.9433 30.403L15.4933 30.8986C15.4122 30.9881 15.3185 31.0294 15.1978 31.0294C15.077 31.0294 14.9833 30.9881 14.9023 30.8986L14.4522 30.403C13.651 29.5198 12.5973 29.0529 11.4051 29.0529H0.898262V10.5258H1.68771V28.2913C1.68771 28.4331 1.7561 28.5665 1.87093 28.6501C1.98575 28.7329 2.13436 28.7565 2.26945 28.7126C4.9696 27.8278 9.82617 27.2908 14.7554 28.629V29.405C14.7554 29.6498 14.9538 29.8482 15.1986 29.8482C15.4435 29.8482 15.6419 29.6498 15.6419 29.405V28.629C20.5702 27.2916 25.4268 27.8278 28.127 28.7126C28.1725 28.727 28.219 28.7346 28.2654 28.7346C28.3575 28.7346 28.4486 28.7059 28.5255 28.6501C28.6403 28.5665 28.7087 28.4331 28.7087 28.2913V10.5258H29.4981L29.4973 29.0529ZM17.8726 25.3429C17.8405 25.3505 17.8076 25.3539 17.7764 25.3539C17.5729 25.3539 17.3897 25.2129 17.3441 25.0069C17.2909 24.7679 17.442 24.5315 17.6809 24.4783C20.6065 23.8299 23.4072 23.7615 25.7806 24.2824C26.0195 24.3348 26.1715 24.5712 26.1183 24.8101C26.0651 25.0491 25.8295 25.2011 25.5906 25.1479C23.3422 24.6539 20.6732 24.7215 17.8726 25.3429ZM17.3441 22.5279C17.2909 22.289 17.442 22.0526 17.6809 21.9994C20.6065 21.3509 23.4072 21.2834 25.7806 21.8035C26.0195 21.8558 26.1715 22.0922 26.1183 22.3312C26.0651 22.5701 25.8295 22.7213 25.5906 22.6689C23.3422 22.1758 20.6732 22.2434 17.8726 22.864C17.8405 22.8716 17.8076 22.8749 17.7764 22.8749C17.5729 22.8749 17.3897 22.7348 17.3441 22.5279ZM17.3449 20.054C17.29 19.8159 17.4386 19.5778 17.6767 19.5221C20.6412 18.8348 23.3666 18.7428 25.7763 19.2477C26.0161 19.2984 26.1698 19.5331 26.1191 19.772C26.0693 20.0118 25.8338 20.1655 25.5948 20.1148C23.3118 19.6369 20.7146 19.7281 17.8768 20.3859C17.8431 20.3935 17.8093 20.3977 17.7764 20.3977C17.5746 20.3977 17.3922 20.2592 17.3449 20.054ZM17.3449 17.4974C17.29 17.2593 17.4386 17.0212 17.6767 16.9655C20.6412 16.2782 23.3666 16.1862 25.7763 16.6911C26.0161 16.7409 26.1698 16.9765 26.1191 17.2154C26.0693 17.4552 25.8338 17.6089 25.5948 17.5582C23.3118 17.0803 20.7146 17.1707 17.8768 17.8284C17.8431 17.836 17.8093 17.8402 17.7764 17.8402C17.5746 17.8411 17.3922 17.7026 17.3449 17.4974ZM12.523 25.3429C9.72232 24.7215 7.0534 24.6539 4.80496 25.1479C4.56602 25.2011 4.32961 25.0491 4.27726 24.8101C4.22491 24.5712 4.37604 24.3348 4.61499 24.2824C6.98839 23.7615 9.78902 23.829 12.7146 24.4783C12.9536 24.5315 13.1038 24.7679 13.0515 25.0069C13.0059 25.2137 12.8227 25.3539 12.6192 25.3539C12.588 25.353 12.555 25.3497 12.523 25.3429ZM13.0507 17.4974C13.0034 17.7026 12.821 17.8411 12.6192 17.8411C12.5854 17.8411 12.5525 17.8377 12.5187 17.8292C9.68095 17.1715 7.0838 17.0803 4.80074 17.5591C4.56095 17.6097 4.32623 17.456 4.27641 17.2163C4.2266 16.9765 4.38027 16.7417 4.61921 16.6919C7.02976 16.187 9.7544 16.2799 12.7188 16.9663C12.9569 17.0212 13.1055 17.2593 13.0507 17.4974ZM4.27388 12.0903C4.23082 11.8497 4.39124 11.6192 4.63187 11.5761C5.68897 11.3862 6.82544 11.3136 8.01087 11.36C8.25572 11.3693 8.4457 11.5753 8.43641 11.8202C8.42712 12.065 8.21942 12.2567 7.97625 12.2457C6.85499 12.2026 5.78269 12.2702 4.78892 12.4492C4.76275 12.4534 4.73573 12.4559 4.7104 12.4559C4.49932 12.4551 4.31187 12.3048 4.27388 12.0903ZM4.27557 19.772C4.22575 19.5322 4.37942 19.2975 4.61837 19.2477C7.02892 18.7428 9.75356 18.8357 12.718 19.5221C12.9561 19.5778 13.1047 19.8159 13.0498 20.054C13.0025 20.2584 12.8202 20.3977 12.6184 20.3977C12.5846 20.3977 12.5517 20.3935 12.5179 20.3859C9.6801 19.7281 7.08295 19.6369 4.7999 20.1157C4.56095 20.1655 4.32623 20.0118 4.27557 19.772ZM4.27557 14.6596C4.22575 14.4198 4.37942 14.1851 4.61837 14.1345C7.02807 13.6296 9.75356 13.7216 12.718 14.4089C12.9561 14.4646 13.1047 14.7027 13.0498 14.9408C13.0025 15.146 12.8202 15.2844 12.6184 15.2844C12.5846 15.2844 12.5517 15.2802 12.5179 15.2726C9.6801 14.6149 7.08295 14.5237 4.7999 15.0024C4.56095 15.0522 4.32623 14.8986 4.27557 14.6596ZM13.0515 22.5279C13.0059 22.7348 12.8227 22.8749 12.6192 22.8749C12.5871 22.8749 12.555 22.8716 12.523 22.864C9.72232 22.2425 7.0534 22.175 4.80496 22.6689C4.56602 22.7213 4.32961 22.5701 4.27726 22.3312C4.22491 22.0922 4.37604 21.8558 4.61499 21.8035C6.98839 21.2834 9.78902 21.3509 12.7146 21.9994C12.9536 22.0526 13.1047 22.289 13.0515 22.5279Z" fill="#002768"/>
</g>
</g>
</svg>
