<svg width="31" height="28" viewBox="0 0 31 28" fill="none" xmlns="http://www.w3.org/2000/svg">
<g clip-path="url(#clip0_129_586)">
<mask id="mask0_129_586" style="mask-type:luminance" maskUnits="userSpaceOnUse" x="0" y="0" width="31" height="28">
<path d="M30.7773 0.499512H0.777344V27.5002H30.7773V0.499512Z" fill="white"/>
</mask>
<g mask="url(#mask0_129_586)">
<path d="M24.1645 10.3418C21.0185 10.3418 18.459 12.9013 18.459 16.0475C18.459 19.1936 21.0185 21.7531 24.1645 21.7531C27.3106 21.7531 29.87 19.1936 29.87 16.0475C29.87 12.9013 27.3106 10.3418 24.1645 10.3418ZM27.5687 15.0385L23.8977 18.7096C23.6332 18.9741 23.2961 19.1146 22.9329 19.1146C22.8706 19.1146 22.8066 19.1107 22.7427 19.102C22.3085 19.0444 21.9477 18.8044 21.729 18.4246L20.57 16.4169C20.4098 16.139 20.3671 15.8138 20.4508 15.5019C20.5345 15.1901 20.7335 14.9303 21.0114 14.7701C21.2892 14.6098 21.6145 14.5672 21.9264 14.6501C22.2382 14.7337 22.4987 14.9327 22.659 15.2114L23.1437 16.0522L25.8635 13.3332C26.09 13.1058 26.3932 12.9811 26.7161 12.9811C27.039 12.9811 27.3414 13.1066 27.5687 13.3332C27.7961 13.5606 27.9208 13.8629 27.9208 14.1858C27.9208 14.5087 27.7953 14.8111 27.5687 15.0385Z" fill="#E64E37"/>
<path d="M20.7881 7.93982C21.2452 7.6335 21.617 7.2348 21.8941 6.754C22.3733 5.92346 22.5012 4.95554 22.2525 4.02867C22.1925 3.80525 22.1128 3.59129 22.0141 3.3876L21.4607 4.34684C21.0881 4.99106 20.4107 5.35186 19.7152 5.35186C19.3741 5.35186 19.0283 5.26502 18.7125 5.08265C17.7518 4.52842 17.4218 3.29523 17.976 2.33521L18.5302 1.37598C18.3044 1.39256 18.0786 1.42966 17.8552 1.48966C16.9283 1.73756 16.1546 2.33205 15.6746 3.1626C15.3975 3.64261 15.2381 4.16447 15.201 4.71316C15.0075 7.5806 14.3049 9.99171 12.9336 12.4723L15.2018 13.7821C16.6654 11.3544 18.4015 9.54012 20.7881 7.93982Z" fill="#E64E37"/>
<path d="M14.7843 17.8865C15.0764 17.3804 14.9027 16.7307 14.3966 16.4386L11.0343 14.4972C10.7903 14.3559 10.5053 14.3196 10.2306 14.393C9.95585 14.4664 9.7269 14.6409 9.58638 14.8856L9.05664 15.8038L14.2545 18.8047L14.7843 17.8865Z" fill="#E64E37"/>
<mask id="mask1_129_586" style="mask-type:luminance" maskUnits="userSpaceOnUse" x="0" y="0" width="31" height="28">
<path d="M30.7793 0.5H0.779297V27.5007H30.7793V0.5Z" fill="white"/>
</mask>
<g mask="url(#mask1_129_586)">
<path d="M1.93641 18.7535C1.83378 18.9311 1.89536 19.1593 2.07299 19.2619L14.7551 26.5845C14.8404 26.6334 14.9406 26.6468 15.0369 26.6208C15.1333 26.5947 15.2138 26.5339 15.2627 26.4487L15.8659 25.4034L2.53957 17.709L1.93641 18.7535Z" fill="#E64E37"/>
</g>
<mask id="mask2_129_586" style="mask-type:luminance" maskUnits="userSpaceOnUse" x="0" y="0" width="31" height="28">
<path d="M30.7793 0.5H0.779297V27.5007H30.7793V0.5Z" fill="white"/>
</mask>
<g mask="url(#mask2_129_586)">
<path d="M18.3168 21.1509L14.9725 19.2206L15.5023 18.3024C15.9902 17.4569 15.7486 16.3871 14.9733 15.8273L15.7075 14.5555C17.1475 12.0622 18.856 10.2346 21.2481 8.62953C21.811 8.25216 22.2689 7.76109 22.6099 7.17055C23.2004 6.14816 23.3568 4.95681 23.0512 3.81678C22.7457 2.67597 22.0139 1.72305 20.9915 1.13251C19.9691 0.541967 18.7778 0.385647 17.6378 0.691181C16.4978 0.996715 15.5441 1.72779 14.9544 2.75018C14.6133 3.34072 14.4175 3.98337 14.3718 4.65996C14.1783 7.53372 13.4497 9.92667 12.0104 12.4207L11.2754 13.6926C10.8807 13.5157 10.4402 13.4794 10.0147 13.5939C9.52676 13.7249 9.1186 14.0368 8.86755 14.4726L8.33781 15.3908L4.99439 13.4604C3.82281 12.7838 2.31886 13.1873 1.64228 14.3589L1.01623 15.4444C0.855967 15.7215 0.814125 16.0452 0.89702 16.3555C0.979914 16.6658 1.17886 16.9247 1.45597 17.085L1.8207 17.295L1.21755 18.3403C0.885967 18.9143 1.08334 19.6501 1.65728 19.9809L14.3394 27.3034C14.5233 27.41 14.7286 27.4645 14.9362 27.4645C15.0412 27.4645 15.1462 27.4503 15.2504 27.4226C15.5607 27.3397 15.8197 27.1408 15.9799 26.8645L16.5839 25.8184L16.9486 26.0292C17.1373 26.1381 17.3433 26.1902 17.547 26.1902C17.9623 26.1902 18.3665 25.9747 18.5891 25.5902L19.216 24.5047C19.5428 23.9386 19.6289 23.2778 19.4583 22.643C19.2878 22.0067 18.8828 21.477 18.3168 21.1509ZM21.5039 2.6136L20.742 3.93363C20.416 4.49812 19.6912 4.69233 19.1268 4.36627C18.5615 4.04021 18.3681 3.31546 18.6941 2.75097L19.456 1.43094C19.846 1.50594 20.2257 1.64489 20.5794 1.84937C20.9331 2.05464 21.2441 2.3128 21.5039 2.6136ZM15.2007 4.71523C15.2378 4.16653 15.3973 3.64467 15.6744 3.16466C16.1536 2.33412 16.9281 1.73963 17.8549 1.49173C18.0783 1.43173 18.3041 1.39462 18.5299 1.37804L17.9757 2.33727C17.4215 3.29809 17.7515 4.53049 18.7123 5.0855C19.0281 5.26787 19.3731 5.35472 19.7141 5.35472C20.4097 5.35472 21.0878 4.99392 21.4597 4.34969L22.0139 3.39046C22.1125 3.59415 22.1931 3.8081 22.2523 4.03153C22.5002 4.9576 22.3731 5.92552 21.8939 6.75686C21.6168 7.23687 21.2441 7.63635 20.7878 7.94267C18.4012 9.54377 16.6644 11.358 15.2023 13.7857L12.9341 12.4759C14.3047 9.99378 15.0073 7.58267 15.2007 4.71523ZM12.5228 13.1944L14.7839 14.5002L14.2612 15.405L12.0002 14.0991L12.5228 13.1944ZM9.58755 14.8871C9.72807 14.6431 9.95702 14.4686 10.2318 14.3944C10.5065 14.321 10.7915 14.3573 11.0354 14.4986L14.3978 16.44C14.9039 16.7321 15.0775 17.3819 14.7854 17.8879L14.2557 18.8061L9.05781 15.8052L9.58755 14.8871ZM15.2623 26.4476C15.2125 26.5329 15.1328 26.5944 15.0365 26.6197C14.9402 26.6458 14.8399 26.6323 14.7547 26.5834L2.07176 19.2616C1.89412 19.159 1.83334 18.9308 1.93518 18.7532L2.53834 17.7079L15.8647 25.4023L15.2623 26.4476ZM18.4968 24.0878L17.8707 25.1734C17.7681 25.351 17.5399 25.4118 17.3623 25.3092L1.87123 16.3658C1.78597 16.316 1.72439 16.2363 1.69912 16.14C1.67307 16.0437 1.68649 15.9434 1.73544 15.8581L2.36228 14.7726C2.66307 14.2523 3.21018 13.961 3.77228 13.961C4.04781 13.961 4.32649 14.0312 4.58228 14.1781L17.9031 21.8693C18.2765 22.0849 18.5449 22.4362 18.6578 22.857C18.7699 23.277 18.7131 23.7144 18.4968 24.0878ZM24.1644 9.51377C20.5612 9.51377 17.6299 12.4452 17.6299 16.0484C17.6299 19.6516 20.5612 22.583 24.1644 22.583C27.7675 22.583 30.6989 19.6516 30.6989 16.0484C30.6989 12.4452 27.7675 9.51377 24.1644 9.51377ZM24.1644 21.7541C21.0183 21.7541 18.4589 19.1945 18.4589 16.0484C18.4589 12.9023 21.0183 10.3427 24.1644 10.3427C27.3104 10.3427 29.8699 12.9023 29.8699 16.0484C29.8699 19.1945 27.3104 21.7541 24.1644 21.7541ZM26.716 12.982C26.3931 12.982 26.0907 13.1067 25.8633 13.3341L23.1436 16.0531L22.6581 15.2115C22.4978 14.9336 22.2373 14.7339 21.9254 14.6502C21.6136 14.5665 21.2891 14.6092 21.0104 14.7702C20.7325 14.9305 20.5328 15.191 20.4499 15.5021C20.3662 15.8139 20.4089 16.1384 20.5691 16.4171L21.7281 18.4248C21.9475 18.8045 22.3075 19.0445 22.7418 19.1022C22.8057 19.1108 22.8689 19.1148 22.932 19.1148C23.2952 19.1148 23.6323 18.975 23.8968 18.7106L27.5678 15.0394C27.7952 14.8121 27.9199 14.5089 27.9199 14.1868C27.9199 13.8647 27.7944 13.5615 27.5678 13.3341C27.3412 13.1067 27.0389 12.982 26.716 12.982ZM26.982 14.4528L23.311 18.124C23.1839 18.2511 23.0291 18.304 22.8507 18.2803C22.6723 18.2566 22.5365 18.1658 22.4465 18.0103L21.2875 16.0026C21.1833 15.8226 21.2457 15.5921 21.4257 15.4886C21.4825 15.4555 21.5465 15.4389 21.612 15.4389C21.6452 15.4389 21.6783 15.4429 21.7115 15.4523C21.8094 15.4784 21.8907 15.5408 21.9404 15.6268L22.696 16.9358C22.7607 17.0471 22.8728 17.1229 23.0007 17.1395C23.1286 17.1568 23.2565 17.1126 23.3473 17.0218L26.4491 13.9207C26.5194 13.8505 26.6141 13.811 26.716 13.811C26.8178 13.811 26.9118 13.8497 26.9828 13.9199C27.0531 13.991 27.0925 14.0849 27.0925 14.1868C27.0918 14.2878 27.0531 14.3826 26.982 14.4528Z" fill="#002768"/>
</g>
</g>
</g>
<defs>
<clipPath id="clip0_129_586">
<rect width="31" height="28" fill="white"/>
</clipPath>
</defs>
</svg>
